SplineFontDB: 3.2
FontName: Vazirmatn-Thin
FullName: Vazirmatn Thin
FamilyName: Vazirmatn Thin
Weight: Thin
Copyright: Copyright 2015 The Vazirmatn Project Authors (https://github.com/rastikerdar/vazirmatn)
Version: 32.101
ItalicAngle: 0
UnderlinePosition: -730
UnderlineWidth: 100
Ascent: 1638
Descent: 410
InvalidEm: 0
LayerCount: 2
Layer: 0 0 "Back" 1
Layer: 1 0 "Fore" 0
PreferredKerning: 4
XUID: [1021 502 1027637223 14955255]
UniqueID: 4204345
FSType: 0
OS2Version: 4
OS2_WeightWidthSlopeOnly: 0
OS2_UseTypoMetrics: 1
CreationTime: 1431850356
ModificationTime: 1647772504
PfmFamily: 33
TTFWeight: 100
TTFWidth: 5
LineGap: 0
VLineGap: 0
Panose: 2 11 6 3 3 8 4 2 2 4
OS2TypoAscent: 2100
OS2TypoAOffset: 0
OS2TypoDescent: -1100
OS2TypoDOffset: 0
OS2TypoLinegap: 0
OS2WinAscent: 2200
OS2WinAOffset: 0
OS2WinDescent: 1300
OS2WinDOffset: 0
HheadAscent: 2100
HheadAOffset: 0
HheadDescent: -1100
HheadDOffset: 0
OS2SubXSize: 1331
OS2SubYSize: 1433
OS2SubXOff: 0
OS2SubYOff: 286
OS2SupXSize: 1331
OS2SupYSize: 1433
OS2SupXOff: 0
OS2SupYOff: 983
OS2StrikeYSize: 102
OS2StrikeYPos: 530
OS2CapHeight: 1638
OS2XHeight: 1082
OS2Vendor: '    '
OS2CodePages: 00000041.20080000
OS2UnicodeRanges: 80002003.80000000.00000008.00000000
Lookup: 1 9 0 "Single Substitution 0" { "Single Substitution 0 subtable"  } []
Lookup: 1 9 0 "Single Substitution 1" { "Single Substitution 1-2"  "Single Substitution 1-1"  "Single Substitution 1-3"  } []
Lookup: 1 9 0 "Single Substitution 2" { "Single Substitution 2-1"  } []
Lookup: 1 9 0 "Single Substitution 3" { "Single Substitution 3-1"  } []
Lookup: 1 9 0 "Single Substitution 4" { "Single Substitution 4-1"  } []
Lookup: 1 9 0 "Single Substitution 5" { "Single Substitution 5-1"  } []
Lookup: 1 9 0 "'fina' Terminal Forms in Arabic lookup 1" { "'fina' Terminal Forms in Arabic lookup 1 subtable"  } ['fina' ('DFLT' <'dflt' > 'arab' <'FAR ' 'KUR ' 'URD ' 'dflt' > ) ]

StartChar: exclam
Encoding: 33 33 1
GlifName: exclam
Width: 496
VWidth: 2799
GlyphClass: 2
Flags: HW
LayerCount: 2
Fore
SplineSet
178 71 m 0
 178 109 211 142 248 142 c 0
 285 142 318 109 318 71 c 0
 318 33 286 1 248 1 c 0
 208 1 178 30 178 71 c 0
218 1321 m 1
 283 1321 l 1
 269 378 l 1
 232 378 l 5
 218 1321 l 1
EndSplineSet
EndChar

StartChar: period
Encoding: 46 46 2
GlifName: period
Width: 496
VWidth: 2799
GlyphClass: 2
Flags: HW
LayerCount: 2
Fore
SplineSet
178 70 m 0
 178 108 211 141 248 141 c 0
 285 141 318 108 318 70 c 0
 318 32 286 0 248 0 c 0
 208 0 178 29 178 70 c 0
EndSplineSet
EndChar

StartChar: colon
Encoding: 58 58 3
GlifName: colon
Width: 496
VWidth: 2799
GlyphClass: 2
Flags: HW
LayerCount: 2
Fore
SplineSet
178 598 m 0
 178 636 211 669 248 669 c 0
 285 669 318 636 318 598 c 0
 318 560 286 528 248 528 c 0
 208 528 178 557 178 598 c 0
178 70 m 4
 178 108 211 141 248 141 c 4
 285 141 318 108 318 70 c 4
 318 32 286 0 248 0 c 4
 208 0 178 29 178 70 c 4
EndSplineSet
EndChar

StartChar: uni060C
Encoding: 1548 1548 5
GlifName: afii57388
Width: 496
VWidth: 2807
GlyphClass: 2
Flags: HW
LayerCount: 2
Fore
SplineSet
350 422 m 5
 289 360 224 270 224 139 c 5
 285 151 324 124 324 73 c 4
 324 23 308 0 258 0 c 4
 186 0 168 32 168 103 c 4
 168 269 256 390 318 446 c 5
 350 422 l 5
EndSplineSet
EndChar

StartChar: uni0615
Encoding: 1557 1557 6
GlifName: uni0615
Width: 0
VWidth: 2748
GlyphClass: 4
Flags: HW
AnchorPoint: "Anchor110" 444 1207 mark 0
AnchorPoint: "Anchor109" 444 1207 mark 0
AnchorPoint: "Anchor101" 443 1984 basemark 0
AnchorPoint: "Anchor101" 444 1207 mark 0
LayerCount: 2
Fore
SplineSet
405 1358 m 2
 545 1360 708 1383 708 1501 c 0
 708 1570 656 1623 584 1623 c 0
 462 1623 355 1466 284 1356 c 1
 405 1358 l 2
243 1357 m 1
 258 1383 285 1419 301 1444 c 1
 301 1898 l 1
 337 1898 l 1
 337 1492 l 1
 404 1575 476 1666 580 1666 c 0
 679 1666 747 1602 747 1507 c 0
 747 1355 587 1316 407 1316 c 2
 152 1316 l 1
 152 1357 l 1
 243 1357 l 1
EndSplineSet
EndChar

StartChar: uni061B
Encoding: 1563 1563 7
GlifName: uni061B_
Width: 496
VWidth: 2807
GlyphClass: 2
Flags: HW
LayerCount: 2
Fore
SplineSet
178 70 m 4
 178 108 211 141 248 141 c 4
 285 141 318 108 318 70 c 4
 318 32 286 0 248 0 c 4
 208 0 178 29 178 70 c 4
350 803 m 1
 289 741 224 651 224 520 c 1
 285 532 324 505 324 454 c 0
 324 404 308 381 258 381 c 0
 186 381 168 413 168 484 c 0
 168 650 256 771 318 827 c 1
 350 803 l 1
EndSplineSet
EndChar

StartChar: uni061F
Encoding: 1567 1567 8
GlifName: uni061F_
Width: 816
VWidth: 2799
GlyphClass: 2
Flags: HW
LayerCount: 2
Fore
SplineSet
129 1046 m 0
 129 1209 269 1329 448 1329 c 0
 521 1329 603 1307 687 1248 c 1
 661 1199 l 1
 589 1244 520 1262 458 1262 c 0
 314 1262 187 1186 187 1043 c 0
 187 790 478 828 478 383 c 2
 478 378 l 1
 424 378 l 1
 424 383 l 2
 424 834 129 739 129 1046 c 0
381 71 m 0
 381 109 414 142 451 142 c 0
 488 142 521 109 521 71 c 0
 521 33 489 1 451 1 c 0
 411 1 381 30 381 71 c 0
EndSplineSet
EndChar

StartChar: uni0621
Encoding: 1569 1569 9
GlifName: uni0621
Width: 769
VWidth: 3091
GlyphClass: 2
Flags: HW
AnchorPoint: "Anchor107" 433 -115 basechar 0
AnchorPoint: "Anchor110" 388 945 basechar 0
LayerCount: 2
Fore
SplineSet
223 373 m 0
 223 251 317 177 411 125 c 1
 489 152 594 185 671 203 c 1
 671 150 l 1
 524 113 336 50 136 -51 c 1
 129 -5 l 1
 202 39 279 70 357 103 c 1
 263 160 173 247 173 372 c 0
 173 513 288 626 431 626 c 0
 500 626 569 606 610 582 c 1
 598 540 l 1
 556 559 491 576 444 576 c 0
 328 576 223 491 223 373 c 0
EndSplineSet
Position2: "Single Positioning lookup 2 subtable" dx=0 dy=0 dh=-104 dv=0
Position2: "Single Positioning lookup 1 subtable" dx=0 dy=0 dh=-104 dv=0
EndChar

StartChar: uni0622
Encoding: 1570 1570 10
GlifName: uni0622
Width: 415
VWidth: 2834
GlyphClass: 3
Flags: HW
AnchorPoint: "Anchor110" 211 1689 basechar 0
AnchorPoint: "Anchor107" 203 -203 basechar 0
LayerCount: 2
Fore
SplineSet
291.280273438 1427.63769531 m 2
 307.405273438 1420.29101562 322.204101562 1417.20996094 335.985351562 1417.20996094 c 0
 386.118164062 1417.20996094 426.012695312 1459.828125 461.435546875 1491.77734375 c 2
 487.012695312 1514.84667969 l 1
 522.004882812 1483.31542969 l 1
 495.889648438 1458.59960938 l 2
 432.143554688 1398.26757812 388.84765625 1370.77734375 342.387695312 1370.77734375 c 0
 320.01171875 1370.77734375 297.323242188 1377.17675781 271.719726562 1388.83886719 c 2
 142.720703125 1447.60058594 l 2
 118.209960938 1458.76660156 96.6494140625 1463.5078125 77.15625 1463.5078125 c 0
 18.9736328125 1463.5078125 -23.6181640625 1420.11230469 -69.8642578125 1373.86425781 c 2
 -101.360351562 1342.36816406 l 1
 -136.3359375 1373.88476562 l 1
 -105.680664062 1405.59765625 l 2
 -34.0283203125 1479.72070312 12.892578125 1512.42871094 66.6982421875 1512.42871094 c 0
 95.5400390625 1512.42871094 125.745117188 1503.04101562 162.280273438 1486.39941406 c 2
 291.280273438 1427.63769531 l 2
EndSplineSet
Refer: 544 -1 N 1 0 0 1 0 0 3
Position2: "Single Positioning lookup 5 subtable" dx=0 dy=0 dh=120 dv=0
Position2: "Single Positioning lookup 2 subtable" dx=0 dy=0 dh=-147 dv=0
Position2: "Single Positioning lookup 1 subtable" dx=0 dy=0 dh=-84 dv=0
Position2: "Single Positioning lookup 0 subtable" dx=0 dy=0 dh=335 dv=0
LCarets2: 1 0
Ligature2: "'liga' Standard Ligatures in Arabic lookup 9 subtable" uni0627 uni0653
Substitution2: "'fina' Terminal Forms in Arabic lookup 1 subtable" uniFE82
EndChar

StartChar: uni0627
Encoding: 1575 1575 15
GlifName: uni0627
Width: 415
VWidth: 3091
GlyphClass: 2
Flags: HW
AnchorPoint: "Anchor110" 200 1475 basechar 0
AnchorPoint: "Anchor107" 204 -252 basechar 0
LayerCount: 2
Fore
SplineSet
233 1327 m 1
 233 0 l 5
 182 0 l 5
 182 1327 l 1
 233 1327 l 1
EndSplineSet
Position2: "Single Positioning lookup 2 subtable" dx=0 dy=0 dh=-147 dv=0
Position2: "Single Positioning lookup 1 subtable" dx=0 dy=0 dh=-84 dv=0
Position2: "Single Positioning lookup 0 subtable" dx=0 dy=0 dh=137 dv=0
Substitution2: "'fina' Terminal Forms in Arabic lookup 1 subtable" uniFE8E
EndChar

StartChar: uni062D
Encoding: 1581 1581 21
GlifName: uni062D_
Width: 1330
VWidth: 3091
GlyphClass: 2
Flags: HW
AnchorPoint: "Anchor107" 679 -875 basechar 0
AnchorPoint: "Anchor110" 584 1170 basechar 0
LayerCount: 2
Fore
SplineSet
1175 498 m 1
 1175 434 l 1
 743 389 184 188 184 -225 c 0
 184 -538 450 -637 771 -637 c 4
 906 -637 1057 -615 1184 -566 c 5
 1198 -617 l 5
 1077 -666 913 -691 756 -691 c 4
 415 -691 129 -570 129 -235 c 0
 129 205 611 401 1050 476 c 1
 1050 476 971 504 920 523 c 0
 724 597 576 690 449 690 c 0
 340 690 255 625 201 561 c 2
 192 550 l 1
 143 574 l 1
 152 586 l 2
 230 689 334 748 450 748 c 0
 560 748 646 702 743 659 c 0
 935 573 1087 515 1175 498 c 1
EndSplineSet
Substitution2: "'fina' Terminal Forms in Arabic lookup 1 subtable" uniFEA2
Substitution2: "'medi' Medial Forms in Arabic lookup 2 subtable" uniFEA4
Substitution2: "'init' Initial Forms in Arabic lookup 3 subtable" uniFEA3
EndChar

StartChar: uni062F
Encoding: 1583 1583 23
GlifName: uni062F_
Width: 920
VWidth: 3091
GlyphClass: 2
Flags: HW
AnchorPoint: "Anchor110" 363 1123 basechar 0
AnchorPoint: "Anchor107" 417 -255 basechar 0
LayerCount: 2
Fore
SplineSet
296 60 m 0
 517 60 737 103 737 319 c 0
 737 501 536 665 345 772 c 1
 372 821 l 1
 602 700 791 518 791 322 c 0
 791 71 596 2 311 2 c 0
 247 2 185 7 129 16 c 1
 129 75 l 5
 190 65 245 60 296 60 c 0
EndSplineSet
Position2: "Single Positioning lookup 2 subtable" dx=0 dy=0 dh=-168 dv=0
Position2: "Single Positioning lookup 1 subtable" dx=0 dy=0 dh=-157 dv=0
Substitution2: "'fina' Terminal Forms in Arabic lookup 1 subtable" uniFEAA
EndChar

StartChar: uni0631
Encoding: 1585 1585 25
GlifName: uni0631
Width: 631
VWidth: 2242
GlyphClass: 2
Flags: HW
AnchorPoint: "Anchor110" 368 827 basechar 0
AnchorPoint: "Anchor107" 302 -654 basechar 0
LayerCount: 2
Fore
SplineSet
55 -528 m 1
 38 -479 l 5
 310 -398 450 -210 450 65 c 0
 450 163 432 272 395 391 c 1
 450 409 l 1
 487 288 505 174 505 71 c 0
 505 -235 347 -452 55 -528 c 1
EndSplineSet
Position2: "Single Positioning lookup 2 subtable" dx=0 dy=0 dh=-31 dv=0
Position2: "Single Positioning lookup 1 subtable" dx=0 dy=0 dh=-31 dv=0
Substitution2: "'fina' Terminal Forms in Arabic lookup 1 subtable" uniFEAE
EndChar

StartChar: uni0633
Encoding: 1587 1587 27
GlifName: uni0633
Width: 2384
VWidth: 2144
GlyphClass: 2
Flags: HW
AnchorPoint: "Anchor110" 1703 913 basechar 0
AnchorPoint: "Anchor107" 663 -754 basechar 0
LayerCount: 2
Fore
SplineSet
1452 0 m 0
 1334 0 1233.61132812 47 1192.61132812 96 c 1
 1225.16662667 -256.0163363 1082.40793316 -515 659 -515 c 0
 311 -515 129 -332 129 3 c 0
 129 116 151 240 188 359 c 1
 241 339 l 1
 209 228 185 110 185 -3 c 0
 185 -293 354 -455 659 -455 c 0
 1010 -455 1141 -261 1141 -3 c 0
 1141 116 1113 249 1066 383 c 1
 1125 407 l 1
 1164 271 l 6
 1204 142 1285 62 1453 62 c 0
 1631 62 1711 191 1711 365 c 0
 1711 394 1708 418 1704 477 c 1
 1752 483 l 1
 1764 332 l 2
 1773 197 1844 62 1993 62 c 0
 2152 62 2200 202 2200 354 c 0
 2200 436 2187 520 2170 590 c 1
 2225 606 l 1
 2244 529 2256 444 2256 362 c 0
 2256 172 2191 1 1995 0 c 0
 1835 0 1763 99 1742 208 c 1
 1707 96 1614 0 1452 0 c 0
EndSplineSet
Position2: "Single Positioning lookup 2 subtable" dx=0 dy=0 dh=-168 dv=0
Position2: "Single Positioning lookup 1 subtable" dx=0 dy=0 dh=-84 dv=0
Substitution2: "'fina' Terminal Forms in Arabic lookup 1 subtable" uniFEB2
Substitution2: "'medi' Medial Forms in Arabic lookup 2 subtable" uniFEB4
Substitution2: "'init' Initial Forms in Arabic lookup 3 subtable" uniFEB3
EndChar

StartChar: uni0635
Encoding: 1589 1589 29
GlifName: uni0635
Width: 2495
VWidth: 3091
GlyphClass: 2
Flags: HW
AnchorPoint: "Anchor107" 663 -754 basechar 0
AnchorPoint: "Anchor110" 1999 1110 basechar 0
LayerCount: 2
Fore
SplineSet
659 -515 m 4
 311 -515 129 -332 129 3 c 4
 129 116 151 240 188 359 c 5
 241 339 l 5
 209 228 185 110 185 -3 c 4
 185 -293 354 -455 659 -455 c 4
 1010 -455 1141 -261 1141 -3 c 0
 1141 116 1113 249 1066 383 c 1
 1125 407 l 1
 1163 278 l 2
 1195 176 1249 100 1357 74 c 1
 1523 356 1753 686 2036 686 c 0
 2228 686 2366 533 2366 371 c 0
 2366 58 2045 0 1688 0 c 2
 1565 0 l 2
 1365 0 1281.61132812 12 1192.61132812 96 c 1
 1225.16662667 -256.0163363 1082.40793316 -515 659 -515 c 4
2043 624 m 0
 1770 624 1562 295 1414 62 c 1
 1684 62 l 2
 1980 62 2310 96 2310 360 c 0
 2310 514 2193 624 2043 624 c 0
EndSplineSet
Position2: "Single Positioning lookup 2 subtable" dx=0 dy=0 dh=-168 dv=0
Position2: "Single Positioning lookup 1 subtable" dx=0 dy=0 dh=-157 dv=0
Substitution2: "'fina' Terminal Forms in Arabic lookup 1 subtable" uniFEBA
Substitution2: "'medi' Medial Forms in Arabic lookup 2 subtable" uniFEBC
Substitution2: "'init' Initial Forms in Arabic lookup 3 subtable" uniFEBB
EndChar

StartChar: uni0637
Encoding: 1591 1591 31
GlifName: uni0637
Width: 1456
VWidth: 3091
GlyphClass: 2
Flags: HW
AnchorPoint: "Anchor110" 464 1479 basechar 0
AnchorPoint: "Anchor107" 632 -252 basechar 0
LayerCount: 2
Fore
SplineSet
1004 624 m 0
 736 624 522 294 375 62 c 1
 645 62 l 2
 941 62 1271 96 1271 360 c 0
 1271 514 1154 624 1004 624 c 0
310 62 m 1
 343 118 405 202 439 258 c 1
 439 1327 l 1
 491 1327 l 1
 491 330 l 1
 602 479 770 686 997 686 c 0
 1185 686 1327 543 1327 373 c 0
 1327 59 1007 0 649 0 c 2
 129 0 l 1
 129 62 l 1
 310 62 l 1
EndSplineSet
Position2: "Single Positioning lookup 2 subtable" dx=0 dy=0 dh=-168 dv=0
Position2: "Single Positioning lookup 1 subtable" dx=0 dy=0 dh=-157 dv=0
Substitution2: "'fina' Terminal Forms in Arabic lookup 1 subtable" uniFEC2
Substitution2: "'medi' Medial Forms in Arabic lookup 2 subtable" uniFEC4
Substitution2: "'init' Initial Forms in Arabic lookup 3 subtable" uniFEC3
EndChar

StartChar: uni0639
Encoding: 1593 1593 33
GlifName: uni0639
Width: 1207
VWidth: 3091
GlyphClass: 2
Flags: HW
AnchorPoint: "Anchor107" 677 -872 basechar 0
AnchorPoint: "Anchor110" 672 1265 basechar 0
LayerCount: 2
Fore
SplineSet
969 303 m 1
 965 245 l 1
 960 245 949 245 942 245 c 0
 533 245 181 114 181 -227 c 0
 181 -513 401 -630 676 -630 c 0
 806 -630 939 -605 1051 -568 c 1
 1066 -621 l 1
 950 -666 817 -691 689 -691 c 0
 376 -691 129 -554 129 -235 c 0
 129 36 308 169 507 244 c 1
 437 293 334 425 334 572 c 0
 334 747 505 892 674 892 c 0
 752 892 840 868 938 808 c 1
 920 764 l 1
 853 798 773 832 684 832 c 0
 519 832 390 722 390 558 c 0
 390 419 500 305 567 263 c 1
 708 293 803 303 915 303 c 0
 932 303 951 303 969 303 c 1
EndSplineSet
Position2: "Single Positioning lookup 3 subtable" dx=0 dy=0 dh=-93 dv=0
Substitution2: "'fina' Terminal Forms in Arabic lookup 1 subtable" uniFECA
Substitution2: "'medi' Medial Forms in Arabic lookup 2 subtable" uniFECC
Substitution2: "'init' Initial Forms in Arabic lookup 3 subtable" uniFECB
EndChar

StartChar: uni0640
Encoding: 1600 1600 35
GlifName: afii57440
Width: 565
VWidth: 3091
GlyphClass: 2
Flags: HW
AnchorPoint: "Anchor110" 296 856 basechar 0
AnchorPoint: "Anchor107" 300 -245 basechar 0
LayerCount: 2
Fore
SplineSet
-18 62 m 1
 583 62 l 5
 583 0 l 1
 -18 0 l 1
 -18 62 l 1
EndSplineSet
Position2: "Single Positioning lookup 2 subtable" dx=0 dy=0 dh=-168 dv=0
Position2: "Single Positioning lookup 1 subtable" dx=0 dy=0 dh=-157 dv=0
EndChar

StartChar: uni0643
Encoding: 1603 1603 38
GlifName: uni0643
Width: 1764
VWidth: 3094
GlyphClass: 2
Flags: HW
AnchorPoint: "Anchor110" 916 1156 basechar 0
AnchorPoint: "Anchor107" 882 -237 basechar 0
LayerCount: 2
Fore
SplineSet
825 62 m 2
 983 62 l 2
 1302 62 1531 84 1531 433 c 2
 1531 1327 l 1
 1582 1327 l 1
 1582 436 l 2
 1582 41 1358 0 983 0 c 2
 825 0 l 2
 439 0 129 76 129 425 c 0
 129 488 140 550 160 610 c 1
 207 592 l 1
 195 541 183 491 183 442 c 0
 183 113 483 62 825 62 c 2
EndSplineSet
Refer: 420 -1 N 1.035 0 0 1.035 -73 -60 2
Position2: "Single Positioning lookup 2 subtable" dx=0 dy=0 dh=-147 dv=0
Position2: "Single Positioning lookup 1 subtable" dx=0 dy=0 dh=-84 dv=0
Position2: "Single Positioning lookup 0 subtable" dx=0 dy=0 dh=137 dv=0
Substitution2: "'fina' Terminal Forms in Arabic lookup 1 subtable" uniFEDA
Substitution2: "'medi' Medial Forms in Arabic lookup 2 subtable" uniFEDC
Substitution2: "'init' Initial Forms in Arabic lookup 3 subtable" uniFEDB
EndChar

StartChar: uni0644
Encoding: 1604 1604 39
GlifName: uni0644
Width: 1250
VWidth: 3091
GlyphClass: 2
Flags: HW
AnchorPoint: "Anchor107" 619 -696 basechar 0
AnchorPoint: "Anchor110" 551 992 basechar 0
LayerCount: 2
Fore
SplineSet
1070 56 m 6
 1070 -307 947 -496 599 -496 c 0
 251 -496 129 -302 129 -27 c 0
 129 86 151 210 188 329 c 1
 241 309 l 1
 209 198 185 80 185 -33 c 0
 185 -263 294 -436 599 -436 c 0
 894 -436 1020 -288 1020 38 c 2
 1020 1327 l 1
 1070 1327 l 1
 1070 56 l 6
EndSplineSet
Position2: "Single Positioning lookup 2 subtable" dx=0 dy=0 dh=-63 dv=0
Position2: "Single Positioning lookup 1 subtable" dx=0 dy=0 dh=-61 dv=0
Position2: "Single Positioning lookup 0 subtable" dx=0 dy=0 dh=137 dv=0
Substitution2: "'fina' Terminal Forms in Arabic lookup 1 subtable" uniFEDE
Substitution2: "'medi' Medial Forms in Arabic lookup 2 subtable" uniFEE0
Substitution2: "'init' Initial Forms in Arabic lookup 3 subtable" uniFEDF
EndChar

StartChar: uni0645
Encoding: 1605 1605 40
GlifName: uni0645
Width: 1158
VWidth: 2744
GlyphClass: 2
Flags: HW
AnchorPoint: "Anchor110" 732 965 basechar 0
AnchorPoint: "Anchor107" 177 -780 basechar 0
LayerCount: 2
Fore
SplineSet
979 238 m 4
 979 401 875 540 724 540 c 4
 536 540 471 323 424 168 c 5
 515 140 692 44 786 44 c 4
 900 44 979 121 979 238 c 4
369 179 m 5
 426 375 500 597 720 597 c 4
 908 597 1029 438 1029 237 c 4
 1029 75 938 -12 784 -12 c 4
 636 -12 476 114 375 114 c 4
 183 114 183 -112 183 -352 c 4
 183 -465 186 -541 192 -637 c 5
 137 -637 l 5
 132 -532 129 -443 129 -352 c 4
 129 -68 134 152 369 179 c 5
EndSplineSet
Position2: "Single Positioning lookup 2 subtable" dx=0 dy=0 dh=-168 dv=0
Position2: "Single Positioning lookup 1 subtable" dx=0 dy=0 dh=-157 dv=0
Substitution2: "'init' Initial Forms in Arabic lookup 3 subtable" uniFEE3
Substitution2: "'medi' Medial Forms in Arabic lookup 2 subtable" uniFEE4
Substitution2: "'fina' Terminal Forms in Arabic lookup 1 subtable" uniFEE2
EndChar

StartChar: uni0647
Encoding: 1607 1607 42
GlifName: uni0647
Width: 894
VWidth: 3091
GlyphClass: 2
Flags: HW
AnchorPoint: "Anchor110" 394 1084 basechar 0
AnchorPoint: "Anchor107" 421 -258 basechar 0
LayerCount: 2
Fore
SplineSet
713 284 m 0
 713 407 562 546 434 649 c 1
 322 548 184 405 184 263 c 0
 184 120 292 62 446 62 c 0
 605 62 713 125 713 284 c 0
390 687 m 1
 360 713 l 1
 395 758 l 5
 577 609 765 453 765 276 c 0
 765 93 633 4 447 4 c 0
 252 4 129 91 129 256 c 0
 129 383 218 527 390 687 c 1
EndSplineSet
Position2: "Single Positioning lookup 2 subtable" dx=0 dy=0 dh=-168 dv=0
Position2: "Single Positioning lookup 1 subtable" dx=0 dy=0 dh=-157 dv=0
Substitution2: "'fina' Terminal Forms in Arabic lookup 1 subtable" uniFEEA
Substitution2: "'medi' Medial Forms in Arabic lookup 2 subtable" uniFEEC
Substitution2: "'init' Initial Forms in Arabic lookup 3 subtable" uniFEEB
EndChar

StartChar: uni0648
Encoding: 1608 1608 43
GlifName: uni0648
Width: 850
VWidth: 2242
GlyphClass: 2
Flags: HW
AnchorPoint: "Anchor107" 401 -644 basechar 0
AnchorPoint: "Anchor110" 415 1017 basechar 0
LayerCount: 2
Fore
SplineSet
722 111 m 0
 722 -270 518 -448 180 -526 c 1
 160 -476 l 1
 501 -388 630 -249 669 31 c 1
 599 9 521 -8 434 -8 c 0
 248 -8 129 61 129 247 c 0
 129 435 217 621 406 621 c 0
 666 621 722 320 722 111 c 0
439 53 m 0
 518 53 599 71 670 92 c 5
 667 271 630 561 405 561 c 0
 246 561 183 394 183 253 c 0
 183 105 291 53 439 53 c 0
EndSplineSet
Position2: "Single Positioning lookup 2 subtable" dx=0 dy=0 dh=-31 dv=0
Position2: "Single Positioning lookup 1 subtable" dx=0 dy=0 dh=-31 dv=0
Substitution2: "'fina' Terminal Forms in Arabic lookup 1 subtable" uniFEEE
EndChar

StartChar: uni0649
Encoding: 1609 1609 44
GlifName: uni0649
Width: 1375
VWidth: 3091
GlyphClass: 2
Flags: HW
AnchorPoint: "Anchor107" 656 -712 basechar 0
AnchorPoint: "Anchor110" 472 753 basechar 0
LayerCount: 2
Fore
SplineSet
659 -504 m 0
 311 -504 129 -321 129 14 c 0
 129 127 151 251 188 370 c 1
 241 350 l 1
 209 239 185 121 185 8 c 0
 185 -282 354 -444 659 -444 c 0
 918 -444 1191 -339 1191 -128 c 0
 1191 -49 1162 11 1057 11 c 2
 895 11 l 2
 733 11 684 113 684 221 c 0
 684 442 809 645 1051 645 c 0
 1118 645 1180 631 1225 607 c 1
 1207 558 l 1
 1162 574 1112 584 1053 584 c 0
 847 584 743 423 743 220 c 0
 743 105 804 72 895 72 c 2
 1057 72 l 2
 1198 72 1247 -1 1247 -124 c 0
 1247 -378 966 -503 659 -504 c 0
EndSplineSet
Substitution2: "'fina' Terminal Forms in Arabic lookup 1 subtable" uniFEF0
Substitution2: "'medi' Medial Forms in Arabic lookup 2 subtable" uniFBE9
Substitution2: "'init' Initial Forms in Arabic lookup 3 subtable" uniFBE8
EndChar

StartChar: uni064B
Encoding: 1611 1611 46
GlifName: uni064B_
Width: 0
VWidth: 2347
GlyphClass: 4
Flags: HW
AnchorPoint: "Anchor110" 301 1059 mark 0
AnchorPoint: "Anchor109" 301 1059 mark 0
AnchorPoint: "Anchor101" 270 1527 basemark 0
AnchorPoint: "Anchor101" 301 1059 mark 0
LayerCount: 2
Fore
SplineSet
65 1048 m 5
 65 1094 l 1
 477 1263 l 1
 477 1217 l 5
 65 1048 l 5
65 1258 m 1
 65 1304 l 1
 477 1473 l 1
 477 1427 l 1
 65 1258 l 1
EndSplineSet
EndChar

StartChar: uni064C
Encoding: 1612 1612 47
GlifName: uni064C_
Width: 0
VWidth: 2347
GlyphClass: 4
Flags: HW
AnchorPoint: "Anchor101" 425 950 mark 0
AnchorPoint: "Anchor101" 415 1453 basemark 0
AnchorPoint: "Anchor109" 425 950 mark 0
AnchorPoint: "Anchor110" 425 950 mark 0
LayerCount: 2
Fore
SplineSet
509 1076 m 1
 446 988 329 931 152 924 c 1
 132 955 l 1
 151 1008 156 1063 156 1095 c 0
 156 1140 139 1174 96 1174 c 0
 80 1174 52 1167 31 1162 c 1
 27 1197 l 1
 56 1206 82 1212 103 1212 c 0
 161 1212 189 1172 189 1099 c 0
 189 1063 180 1002 171 958 c 1
 294 974 388 996 471 1084 c 1
 377 1090 275 1134 275 1246 c 0
 275 1312 333 1390 420 1390 c 0
 507 1390 562 1331 562 1245 c 0
 562 1200 544 1148 527 1106 c 1
 544 1103 562 1101 579 1099 c 1
 575 1068 l 1
 555 1069 530 1073 509 1076 c 1
490 1114 m 1
 506 1141 526 1203 526 1246 c 0
 526 1307 478 1352 422 1352 c 0
 358 1352 312 1295 312 1243 c 0
 312 1154 414 1124 490 1114 c 1
EndSplineSet
EndChar

StartChar: uni064D
Encoding: 1613 1613 48
GlifName: uni064D_
Width: 0
VWidth: 2347
GlyphClass: 4
Flags: HW
AnchorPoint: "Anchor107" 253 -205 mark 0
AnchorPoint: "Anchor106" 253 -205 mark 0
AnchorPoint: "Anchor100" 304 -610 basemark 0
AnchorPoint: "Anchor100" 253 -205 mark 0
LayerCount: 2
Fore
SplineSet
66 -613 m 1
 66 -567 l 1
 478 -398 l 1
 478 -444 l 1
 66 -613 l 1
66 -403 m 1
 66 -357 l 1
 478 -188 l 1
 478 -234 l 1
 66 -403 l 1
EndSplineSet
EndChar

StartChar: uni064E
Encoding: 1614 1614 49
GlifName: uni064E_
Width: 0
VWidth: 2347
GlyphClass: 4
Flags: HW
AnchorPoint: "Anchor110" 298 1183 mark 0
AnchorPoint: "Anchor109" 298 1183 mark 0
AnchorPoint: "Anchor101" 293 1435 basemark 0
AnchorPoint: "Anchor101" 298 1183 mark 0
LayerCount: 2
Fore
SplineSet
70 1170 m 1
 70 1216 l 1
 482 1385 l 1
 482 1339 l 1
 70 1170 l 1
EndSplineSet
EndChar

StartChar: uni064F
Encoding: 1615 1615 50
GlifName: uni064F_
Width: 0
VWidth: 2347
GlyphClass: 4
Flags: HW
AnchorPoint: "Anchor110" 293 977 mark 0
AnchorPoint: "Anchor109" 293 977 mark 0
AnchorPoint: "Anchor101" 283 1480 basemark 0
AnchorPoint: "Anchor101" 293 977 mark 0
LayerCount: 2
Fore
SplineSet
441 1085 m 1
 416 1087 399 1090 377 1093 c 1
 314 1007 210 956 47 942 c 1
 41 976 l 1
 185 992 264 1023 338 1100 c 1
 245 1108 143 1150 143 1265 c 0
 143 1331 200 1407 286 1407 c 0
 372 1407 429 1350 429 1264 c 0
 429 1218 411 1166 394 1124 c 1
 411 1121 428 1119 446 1117 c 1
 441 1085 l 1
357 1131 m 1
 373 1162 393 1219 393 1263 c 0
 393 1324 347 1369 290 1369 c 0
 226 1369 180 1314 180 1261 c 0
 180 1170 284 1140 357 1131 c 1
EndSplineSet
EndChar

StartChar: uni0650
Encoding: 1616 1616 51
GlifName: uni0650
Width: 0
VWidth: 2347
GlyphClass: 4
Flags: HW
AnchorPoint: "Anchor107" 272 -263 mark 0
AnchorPoint: "Anchor106" 272 -263 mark 0
AnchorPoint: "Anchor100" 320 -492 basemark 0
AnchorPoint: "Anchor100" 272 -263 mark 0
LayerCount: 2
Fore
SplineSet
66 -476 m 1
 66 -429 l 5
 477 -261 l 5
 477 -306 l 1
 66 -476 l 1
EndSplineSet
EndChar

StartChar: uni0651
Encoding: 1617 1617 52
GlifName: uni0651
Width: 0
VWidth: 2425
GlyphClass: 4
Flags: HW
AnchorPoint: "Anchor110" 333 998 mark 0
AnchorPoint: "Anchor109" 333 998 mark 0
AnchorPoint: "Anchor101" 304 1388 basemark 0
AnchorPoint: "Anchor101" 333 998 mark 0
LayerCount: 2
Fore
SplineSet
322 1281 m 1
 325 1197 328 1095 417 1095 c 0
 490 1095 510 1152 510 1219 c 0
 510 1252 505 1286 499 1319 c 1
 538 1328 l 1
 547 1293 552 1256 552 1221 c 0
 552 1129 516 1052 414 1052 c 0
 359 1052 318 1086 313 1135 c 1
 301 1068 272 1013 177 1013 c 0
 82 1013 50 1087 50 1170 c 0
 50 1192 52 1214 56 1236 c 1
 91 1230 l 1
 88 1211 86 1192 86 1174 c 0
 86 1108 109 1054 178 1054 c 0
 284 1054 287 1153 287 1262 c 2
 287 1276 l 1
 322 1281 l 1
EndSplineSet
EndChar

StartChar: uni0652
Encoding: 1618 1618 53
GlifName: uni0652
Width: 0
VWidth: 2347
GlyphClass: 4
Flags: HW
AnchorPoint: "Anchor110" 216 977 mark 0
AnchorPoint: "Anchor109" 216 977 mark 0
AnchorPoint: "Anchor101" 213 1386 basemark 0
AnchorPoint: "Anchor101" 216 977 mark 0
LayerCount: 2
Fore
SplineSet
102 1162 m 4
 102 1098 154 1048 217 1048 c 4
 281 1048 331 1098 331 1162 c 4
 331 1225 281 1278 217 1278 c 4
 153 1278 102 1225 102 1162 c 4
64 1162 m 0
 64 1246 133 1316 217 1316 c 0
 301 1316 370 1246 370 1162 c 0
 370 1078 301 1009 217 1009 c 0
 133 1009 64 1078 64 1162 c 0
EndSplineSet
EndChar

StartChar: uni0653
Encoding: 1619 1619 54
GlifName: uni0653
Width: 0
VWidth: 2709
GlyphClass: 4
Flags: HW
AnchorPoint: "Anchor110" 310 1066 mark 0
AnchorPoint: "Anchor109" 310 1066 mark 0
AnchorPoint: "Anchor101" 298 1405 basemark 0
AnchorPoint: "Anchor101" 310 1066 mark 0
LayerCount: 2
Fore
SplineSet
227 1241 m 0
 172 1241 95 1162 61 1129 c 1
 30 1156 l 1
 65 1192 163 1289 223 1289 c 0
 284 1289 379 1200 443 1200 c 0
 491 1200 558 1264 586 1289 c 1
 616 1262 l 1
 586 1234 491 1152 447 1152 c 0
 390 1152 286 1241 227 1241 c 0
EndSplineSet
EndChar

StartChar: uni0657
Encoding: 1623 1623 57
GlifName: uni0657
Width: 0
VWidth: 2347
GlyphClass: 4
Flags: HW
AnchorPoint: "Anchor110" 284 961 mark 0
AnchorPoint: "Anchor109" 284 961 mark 0
AnchorPoint: "Anchor101" 308 1543 basemark 0
AnchorPoint: "Anchor101" 284 961 mark 0
LayerCount: 2
Fore
SplineSet
117 1345 m 1
 142 1343 159 1340 181 1337 c 1
 244 1423 348 1474 511 1488 c 1
 517 1454 l 1
 373 1438 294 1407 220 1330 c 1
 313 1322 415 1280 415 1165 c 4
 415 1099 358 1023 272 1023 c 0
 186 1023 129 1080 129 1166 c 0
 129 1212 147 1264 164 1306 c 1
 147 1309 130 1311 112 1313 c 1
 117 1345 l 1
201 1299 m 1
 185 1268 165 1211 165 1167 c 0
 165 1106 211 1061 268 1061 c 0
 332 1061 378 1116 378 1169 c 4
 378 1260 274 1290 201 1299 c 1
EndSplineSet
EndChar

StartChar: uni065A
Encoding: 1626 1626 58
GlifName: uni065A_
Width: 0
VWidth: 2347
GlyphClass: 4
Flags: HW
AnchorPoint: "Anchor110" 584 1444 mark 0
AnchorPoint: "Anchor109" 584 1444 mark 0
AnchorPoint: "Anchor101" 579 1861 basemark 0
AnchorPoint: "Anchor101" 584 1444 mark 0
LayerCount: 2
Fore
SplineSet
543 1494 m 5
 406 1772 l 1
 446 1792 l 1
 581 1517 l 1
 716 1792 l 1
 756 1772 l 1
 619 1494 l 1
 543 1494 l 5
EndSplineSet
EndChar

StartChar: uni0660
Encoding: 1632 1632 59
GlifName: afii57392
Width: 751
VWidth: 2781
GlyphClass: 2
Flags: HW
LayerCount: 2
Fore
SplineSet
376 321 m 1
 267 430 l 1
 374 537 l 1
 484 429 l 1
 376 321 l 1
EndSplineSet
EndChar

StartChar: uni0661
Encoding: 1633 1633 60
GlifName: afii57393
Width: 531
VWidth: 3091
GlyphClass: 2
Flags: HW
LayerCount: 2
Fore
SplineSet
347 0 m 1
 295 0 l 1
 295 227 l 2
 295 647 268 975 150 1246 c 1
 199 1261 l 1
 321 968 347 637 347 224 c 2
 347 0 l 1
EndSplineSet
EndChar

StartChar: uni0662
Encoding: 1634 1634 61
GlifName: afii57394
Width: 1012
VWidth: 3091
GlyphClass: 2
Flags: HW
LayerCount: 2
Fore
SplineSet
881 1258 m 1
 882 1232 883 1207 883 1183 c 0
 883 949 818 797 587 797 c 0
 469 797 362 834 304 909 c 1
 341 702 347 412 347 224 c 2
 347 0 l 1
 295 0 l 1
 295 227 l 2
 295 647 267 976 150 1246 c 1
 199 1261 l 1
 221 1205 237 1161 259 1099 c 0
 316 943 388 852 585 852 c 0
 774 852 832 980 832 1149 c 0
 832 1187 830 1222 826 1254 c 1
 881 1258 l 1
EndSplineSet
EndChar

StartChar: uni0663
Encoding: 1635 1635 62
GlifName: afii57395
Width: 1289
VWidth: 3091
GlyphClass: 2
Flags: HW
LayerCount: 2
Fore
SplineSet
935 797 m 0
 807 797 746 874 718 980 c 1
 695 881 613 797 496 797 c 0
 405 797 343 840 303 890 c 1
 341 683 347 429 347 224 c 2
 347 0 l 1
 295 0 l 1
 295 227 l 2
 295 647 267 976 150 1246 c 1
 199 1261 l 1
 227 1187 247 1128 279 1050 c 0
 318 954 358 853 493 852 c 0
 659 852 693 997 694 1168 c 2
 694 1209 l 1
 738 1210 l 1
 739 1183 l 2
 745 1020 771 852 933 852 c 0
 1081 852 1109 1017 1109 1149 c 0
 1109 1187 1107 1222 1103 1254 c 1
 1158 1258 l 1
 1159 1232 1160 1207 1160 1183 c 0
 1160 991 1122 797 935 797 c 0
EndSplineSet
EndChar

StartChar: uni0664
Encoding: 1636 1636 63
GlifName: afii57396
Width: 889
VWidth: 3091
GlyphClass: 2
Flags: HW
LayerCount: 2
Fore
SplineSet
521 706 m 1
 365 711 206 782 206 958 c 0
 206 1157 389 1250 596 1250 c 0
 612 1250 626 1250 640 1249 c 1
 638 1193 l 1
 626 1194 614 1194 603 1194 c 0
 433 1194 260 1128 260 961 c 0
 260 812 394 757 590 752 c 1
 601 683 l 1
 396 609 191 434 191 253 c 0
 191 96 371 55 540 55 c 0
 618 55 693 63 766 77 c 1
 772 20 l 1
 692 7 614 0 540 0 c 0
 328 0 135 59 135 249 c 0
 135 461 341 631 521 706 c 1
EndSplineSet
EndChar

StartChar: uni0665
Encoding: 1637 1637 64
GlifName: afii57397
Width: 1026
VWidth: 3091
GlyphClass: 2
Flags: HW
LayerCount: 2
Fore
SplineSet
513 944 m 0
 291 944 190 569 190 368 c 0
 190 171 310 55 515 55 c 4
 719 55 836 171 836 368 c 0
 836 569 734 944 513 944 c 0
515 0 m 0
 261 0 136 135 136 368 c 0
 136 591 253 1000 513 1000 c 0
 772 1000 890 591 890 368 c 0
 890 135 768 0 515 0 c 0
EndSplineSet
EndChar

StartChar: uni0666
Encoding: 1638 1638 65
GlifName: afii57398
Width: 943
VWidth: 3091
GlyphClass: 2
Flags: HW
LayerCount: 2
Fore
SplineSet
399 1138 m 4
 300 1138 194 1153 126 1171 c 5
 126 1226 l 1
 211 1206 310 1193 408 1193 c 0
 517 1193 614 1208 708 1230 c 1
 722 1220 l 1
 707 1042 700 817 700 631 c 0
 700 420 709 208 739 0 c 1
 675 0 l 1
 655 183 648 359 648 536 c 0
 648 727 651 969 668 1165 c 1
 554 1143 482 1138 399 1138 c 4
EndSplineSet
EndChar

StartChar: uni0667
Encoding: 1639 1639 66
GlifName: afii57399
Width: 1146
VWidth: 3091
GlyphClass: 2
Flags: HW
LayerCount: 2
Fore
SplineSet
539 0 m 5
 456 469 318 904 135 1238 c 1
 184 1264 l 1
 327 990 486 556 573 89 c 1
 660 556 819 990 962 1264 c 1
 1011 1238 l 1
 828 904 690 469 607 0 c 1
 539 0 l 5
EndSplineSet
EndChar

StartChar: uni0668
Encoding: 1640 1640 67
GlifName: afii57400
Width: 1146
VWidth: 3091
GlyphClass: 2
Flags: HW
LayerCount: 2
Fore
SplineSet
539 1244 m 5
 607 1244 l 1
 690 775 828 340 1011 6 c 1
 962 -20 l 1
 819 254 660 688 573 1155 c 1
 486 688 327 254 184 -20 c 1
 135 6 l 1
 318 340 456 775 539 1244 c 5
EndSplineSet
EndChar

StartChar: uni0669
Encoding: 1641 1641 68
GlifName: afii57401
Width: 927
VWidth: 2144
GlyphClass: 2
Flags: HW
LayerCount: 2
Fore
SplineSet
441 740 m 0
 534 740 604 752 668 776 c 1
 659 987 623 1227 401 1227 c 0
 255 1227 177 1073 177 930 c 4
 177 765 296 740 441 740 c 0
450 685 m 0
 256 685 123 727 123 930 c 4
 123 1113 227 1283 403 1283 c 0
 665 1283 712 1023 721 717 c 0
 725 586 726 210 729 0 c 1
 678 0 l 1
 677 201 673 554 670 719 c 1
 606 700 538 685 450 685 c 0
EndSplineSet
EndChar

StartChar: uni066A
Encoding: 1642 1642 69
GlifName: afii57381
Width: 966
VWidth: 4090
GlyphClass: 2
Flags: HW
LayerCount: 2
Fore
SplineSet
739 1280 m 1
 782 1260 l 1
 211 1 l 1
 168 21 l 1
 739 1280 l 1
  Spiro
    739 1280 v
    782 1260 v
    211 1 v
    168 21 v
    0 0 z
  EndSpiro
626 146 m 0
 626 187 660 221 700 221 c 0
 741 221 775 187 775 146 c 0
 775 105 741 71 700 71 c 0
 657 71 626 102 626 146 c 0
  Spiro
    626 146 o
    636.277 183.633 o
    663.07 210.686 o
    700 221 o
    737.633 210.686 o
    764.686 183.633 o
    775 146 o
    764.686 108.367 o
    737.633 81.3137 o
    700 71 o
    661.737 80.648 o
    635.611 107.033 o
    0 0 z
  EndSpiro
182 1145 m 4
 182 1186 216 1220 257 1220 c 4
 297 1220 331 1186 331 1145 c 4
 331 1104 297 1070 257 1070 c 4
 214 1070 182 1101 182 1145 c 4
  Spiro
    182 1145 o
    192.314 1182.63 o
    219.367 1209.69 o
    257 1220 o
    293.93 1209.69 o
    320.723 1182.63 o
    331 1145 o
    320.723 1107.37 o
    293.93 1080.31 o
    257 1070 o
    218.478 1079.65 o
    191.87 1106.03 o
    0 0 z
  EndSpiro
EndSplineSet
EndChar

StartChar: uni066B
Encoding: 1643 1643 70
GlifName: uni066B_
Width: 895
VWidth: 2989
GlyphClass: 2
Flags: HW
LayerCount: 2
Fore
SplineSet
655 643 m 5
 693 626 l 1
 160 -379 l 1
 119 -361 l 5
 655 643 l 5
EndSplineSet
EndChar

StartChar: uni066C
Encoding: 1644 1644 71
GlifName: uni066C_
Width: 473
VWidth: 2075
GlyphClass: 2
Flags: HW
LayerCount: 2
Fore
SplineSet
206 42 m 2
 206 161 l 1
 260 161 l 1
 260 64 l 2
 260 -63 199 -188 137 -258 c 1
 107 -234 l 1
 162 -144 206 -68 206 42 c 2
EndSplineSet
EndChar

StartChar: uni066D
Encoding: 1645 1645 72
GlifName: afii63167
Width: 1254
VWidth: 2987
GlyphClass: 2
Flags: HW
LayerCount: 2
Fore
SplineSet
1021.92249295 940.099609375 m 1
 779.374600706 762.139766033 l 1
 872.012815924 476.676217311 l 1
 627.483014585 653.205907514 l 1
 382.266669382 476.676902468 l 1
 475.591271164 762.139767302 l 1
 232.356375101 940.099609375 l 1
 533.120745888 940.099609375 l 1
 627.450195313 1227.22069545 l 1
 721.779644737 940.099609375 l 1
 1021.92249295 940.099609375 l 1
EndSplineSet
EndChar

StartChar: uni066E
Encoding: 1646 1646 73
GlifName: uni066E_
Width: 1731
VWidth: 3091
GlyphClass: 2
Flags: HW
AnchorPoint: "Anchor107" 869 -240 basechar 0
AnchorPoint: "Anchor110" 880 956 basechar 0
LayerCount: 2
Fore
SplineSet
1037 0 m 6
 825 0 l 2
 439 0 129 75 129 425 c 0
 129 488 140 550 160 610 c 1
 207 592 l 1
 195 542 183 490 183 442 c 0
 183 115 483 62 825 62 c 2
 1036 62 l 6
 1260 62 1547 78 1547 341 c 4
 1547 399 1537 511 1516 599 c 5
 1572 614 l 5
 1588 541 1602 414 1602 356 c 4
 1602 43 1330 0 1037 0 c 6
EndSplineSet
Substitution2: "'fina' Terminal Forms in Arabic lookup 1 subtable" uni066E.fina
Substitution2: "'medi' Medial Forms in Arabic lookup 2 subtable" uni066E.medi
Substitution2: "'init' Initial Forms in Arabic lookup 3 subtable" uni066E.init
EndChar

StartChar: uni066F
Encoding: 1647 1647 74
GlifName: uni066F_
Width: 1358
VWidth: 3091
GlyphClass: 2
Flags: HW
AnchorPoint: "Anchor107" 664 -665 basechar 0
AnchorPoint: "Anchor110" 894 1058 basechar 0
LayerCount: 2
Fore
SplineSet
659 -442 m 0
 310 -442 129 -259 129 76 c 0
 129 189 151 313 188 432 c 1
 241 412 l 1
 209 301 185 183 185 70 c 0
 185 -220 353 -382 659 -382 c 0
 1050 -382 1179 -222 1179 128 c 5
 1096 103 1017 83 916 83 c 4
 735 83 629 144 629 303 c 4
 629 483 724 671 905 671 c 4
 1169 671 1229 343 1229 100 c 4
 1229 -255 1061 -442 659 -442 c 0
923 137 m 4
 1012 137 1099 160 1176 182 c 5
 1154 347 1114 612 905 612 c 4
 754 612 683 457 683 310 c 4
 683 171 786 137 923 137 c 4
EndSplineSet
Substitution2: "'init' Initial Forms in Arabic lookup 3 subtable" uni066F.init
Substitution2: "'medi' Medial Forms in Arabic lookup 2 subtable" uni066F.medi
Substitution2: "'fina' Terminal Forms in Arabic lookup 1 subtable" uni066F.fina
EndChar

StartChar: uni0670
Encoding: 1648 1648 75
GlifName: uni0670
Width: 0
VWidth: 2608
GlyphClass: 4
Flags: HW
AnchorPoint: "Anchor110" 106 1134 mark 0
AnchorPoint: "Anchor109" 106 1134 mark 0
AnchorPoint: "Anchor101" 106 1448 basemark 0
AnchorPoint: "Anchor101" 106 1134 mark 0
LayerCount: 2
Fore
SplineSet
91 1135 m 1
 91 1448 l 1
 126 1448 l 1
 126 1135 l 1
 91 1135 l 1
EndSplineSet
EndChar

StartChar: uni0674
Encoding: 1652 1652 76
GlifName: uni0674
Width: 558
VWidth: 2573
GlyphClass: 2
Flags: HW
LayerCount: 2
Fore
SplineSet
262 1242 m 1
 208 1268 159 1317 159 1390 c 0
 159 1494 249 1564 337 1564 c 0
 371 1564 386 1561 421 1549 c 1
 422 1505 l 1
 396 1514 370 1518 341 1518 c 0
 265 1518 198 1460 198 1389 c 0
 198 1316 274 1267 327 1274 c 0
 336 1275 346 1278 355 1282 c 2
 469 1325 l 1
 475 1285 l 1
 131 1150 l 1
 126 1187 l 1
 262 1242 l 1
EndSplineSet
EndChar

StartChar: uni06A1
Encoding: 1697 1697 80
GlifName: uni06A_1
Width: 1715
VWidth: 3091
GlyphClass: 2
Flags: HW
AnchorPoint: "Anchor110" 1236 1371 basechar 0
AnchorPoint: "Anchor107" 884 -239 basechar 0
LayerCount: 2
Fore
SplineSet
1289 413 m 4
 1377 413 1458 435 1535 457 c 5
 1512 629 1479 887 1270 887 c 4
 1118 887 1043 732 1043 585 c 4
 1043 446 1150 413 1289 413 c 4
1537 399 m 5
 1455 374 1382 354 1276 354 c 4
 1093 354 993 420 993 582 c 4
 993 774 1093 945 1271 945 c 4
 1521 945 1589 625 1589 407 c 4
 1589 73 1509 0 1156 0 c 6
 824 0 l 2
 439 0 129 75 129 425 c 0
 129 488 140 550 160 610 c 1
 207 592 l 1
 195 541 183 491 183 442 c 0
 183 115 483 62 824 62 c 2
 1168 62 l 6
 1449 62 1537 102 1537 399 c 5
EndSplineSet
Substitution2: "'init' Initial Forms in Arabic lookup 3 subtable" uni06A1.init
Substitution2: "'medi' Medial Forms in Arabic lookup 2 subtable" uni06A1.medi
Substitution2: "'fina' Terminal Forms in Arabic lookup 1 subtable" uni06A1.fina
EndChar

StartChar: uni06A9
Encoding: 1705 1705 81
GlifName: uni06A_9
Width: 1754
VWidth: 3091
GlyphClass: 2
Flags: HW
AnchorPoint: "Anchor110" 1207 1306 basechar 0
AnchorPoint: "Anchor107" 879 -240 basechar 0
LayerCount: 2
Fore
SplineSet
1078 0 m 6
 825 0 l 2
 439 0 129 76 129 425 c 0
 129 488 140 550 160 610 c 1
 207 592 l 1
 195 542 183 490 183 442 c 0
 183 115 483 62 825 62 c 2
 1077 62 l 6
 1295 62 1519 100 1519 294 c 4
 1519 515 1152 764 989 893 c 4
 956 919 902 948 902 980 c 4
 902 1024 948 1040 1007 1064 c 6
 1673 1335 l 5
 1673 1278 l 5
 949 984 l 5
 1140 851 1573 568 1573 290 c 4
 1573 58 1348 0 1078 0 c 6
EndSplineSet
Position2: "Single Positioning lookup 4 subtable" dx=0 dy=0 dh=-23 dv=0
Position2: "Single Positioning lookup 2 subtable" dx=0 dy=0 dh=-201 dv=0
Position2: "Single Positioning lookup 1 subtable" dx=0 dy=0 dh=-150 dv=0
Position2: "Single Positioning lookup 0 subtable" dx=0 dy=0 dh=189 dv=0
Substitution2: "'init' Initial Forms in Arabic lookup 3 subtable" uniFB90
Substitution2: "'medi' Medial Forms in Arabic lookup 2 subtable" uniFB91
Substitution2: "'fina' Terminal Forms in Arabic lookup 1 subtable" uniFB8F
EndChar

StartChar: uni06BA
Encoding: 1722 1722 83
GlifName: afii57514
Width: 1326
VWidth: 3091
GlyphClass: 2
Flags: HW
AnchorPoint: "Anchor110" 641 789 basechar 0
AnchorPoint: "Anchor107" 664 -665 basechar 0
LayerCount: 2
Fore
SplineSet
659 -382 m 4
 1010 -382 1141 -188 1141 70 c 0
 1141 189 1113 322 1066 456 c 1
 1125 480 l 1
 1171 341 1197 202 1197 77 c 0
 1197 -218 1049 -442 659 -442 c 4
 311 -442 129 -259 129 76 c 4
 129 189 151 313 188 432 c 5
 241 412 l 5
 209 301 185 183 185 70 c 4
 185 -220 354 -382 659 -382 c 4
EndSplineSet
Substitution2: "'init' Initial Forms in Arabic lookup 3 subtable" uni06BA.init
Substitution2: "'medi' Medial Forms in Arabic lookup 2 subtable" uni06BA.medi
Substitution2: "'fina' Terminal Forms in Arabic lookup 1 subtable" uniFB9F
EndChar

StartChar: uni06F0
Encoding: 1776 1776 86
GlifName: uni06F_0
Width: 804
VWidth: 2699
GlyphClass: 2
Flags: HW
LayerCount: 2
Fore
SplineSet
172 478 m 4
 172 606 274 708 402 708 c 4
 530 708 632 606 632 478 c 4
 632 350 530 248 402 248 c 4
 274 248 172 350 172 478 c 4
224 478 m 4
 224 379 303 300 402 300 c 4
 501 300 580 379 580 478 c 4
 580 577 501 656 402 656 c 4
 303 656 224 577 224 478 c 4
EndSplineSet
EndChar

StartChar: uni06F4
Encoding: 1780 1780 90
GlifName: uni06F_4
Width: 1110
VWidth: 3091
GlyphClass: 2
Flags: HW
LayerCount: 2
Fore
SplineSet
791 1212 m 0
 598 1212 494 1053 494 814 c 0
 494 801 621 742 787 742 c 0
 853 742 926 751 998 777 c 1
 1005 724 l 1
 938 698 862 685 784 685 c 4
 603 685 421 755 306 885 c 1
 340 691 348 382 348 221 c 2
 347 0 l 1
 295 0 l 1
 295 227 l 2
 295 647 267 974 150 1246 c 1
 199 1261 l 1
 272 1049 l 2
 320 927 408 859 444 837 c 1
 444 1065 552 1269 780 1269 c 0
 859 1269 925 1242 970 1214 c 1
 953 1169 l 1
 913 1188 851 1212 791 1212 c 0
EndSplineSet
Substitution2: "'locl' Localized Forms in Arabic lookup 10 subtable" uni06F4.locl
EndChar

StartChar: uni06F5
Encoding: 1781 1781 91
GlifName: uni06F_5
Width: 1148
VWidth: 3091
GlyphClass: 2
Flags: HW
LayerCount: 2
Fore
SplineSet
184 276 m 0
 184 157 238 54 355 54 c 0
 494 54 522 149 553 280 c 1
 594 280 l 1
 628 147 679 54 796 54 c 0
 919 54 963 155 963 276 c 0
 963 592 758 900 562 1107 c 1
 382 866 184 540 184 276 c 0
574 183 m 1
 554 102 515 0 356 0 c 0
 203 0 135 102 135 277 c 4
 135 570 342 912 522 1144 c 1
 463 1203 l 1
 498 1252 l 1
 886 871 1013 533 1013 277 c 0
 1013 104 948 0 796 0 c 0
 650 0 598 104 574 183 c 1
EndSplineSet
EndChar

StartChar: uni06F6
Encoding: 1782 1782 92
GlifName: uni06F_6
Width: 937
VWidth: 3091
GlyphClass: 2
Flags: HW
LayerCount: 2
Fore
SplineSet
572 631 m 1
 411 644 144 690 144 905 c 0
 144 1109 305 1267 490 1267 c 0
 582 1267 647 1235 694 1208 c 1
 678 1162 l 1
 639 1181 578 1210 501 1210 c 0
 339 1210 198 1077 198 912 c 0
 198 739 423 695 600 683 c 0
 604 683 623 684 639 694 c 0
 710 739 761 779 817 809 c 5
 832 757 l 1
 550 601 342 298 212 -8 c 1
 162 12 l 1
 294 308 424 482 572 631 c 1
EndSplineSet
Substitution2: "'locl' Localized Forms in Arabic lookup 10 subtable" uni0666
EndChar

StartChar: uniFB8F
Encoding: 64399 64399 107
GlifName: uniF_B_8F_
Width: 1899
VWidth: 3091
GlyphClass: 2
Flags: HW
AnchorPoint: "Anchor110" 1207 1306 basechar 0
AnchorPoint: "Anchor107" 879 -240 basechar 0
LayerCount: 2
Fore
SplineSet
1078 0 m 6
 825 0 l 2
 439 0 129 76 129 425 c 0
 129 488 140 550 160 610 c 1
 207 592 l 1
 195 542 183 490 183 442 c 0
 183 115 483 62 825 62 c 2
 1077 62 l 6
 1295 62 1519 100 1519 294 c 4
 1519 515 1152 764 989 893 c 4
 956 919 902 948 902 980 c 4
 902 1024 948 1040 1007 1064 c 6
 1673 1335 l 5
 1673 1278 l 5
 949 984 l 5
 1128 859 1518 606 1568 345 c 4
 1592 221 1707 62 1858 62 c 6
 1918 62 l 5
 1918 0 l 5
 1858 0 l 6
 1724 0 1620 93 1560 217 c 5
 1524 47 1321 0 1078 0 c 6
EndSplineSet
EndChar

StartChar: uniFB9F
Encoding: 64415 64415 115
GlifName: uniF_B_9F_
Width: 1447
VWidth: 3091
GlyphClass: 2
Flags: HW
AnchorPoint: "Anchor107" 664 -758 basechar 0
AnchorPoint: "Anchor110" 632 773 basechar 0
LayerCount: 2
Fore
SplineSet
659 -455 m 0
 1010 -455 1141 -261 1141 -3 c 0
 1141 116 1113 249 1066 383 c 1
 1125 407 l 1
 1175 234 l 6
 1205 137 1282 62 1406 62 c 2
 1466 62 l 1
 1466 0 l 1
 1406 0 l 2
 1320 0 1245.61132812 25 1192.61132812 96 c 1
 1225.16662667 -256.0163363 1082.40793316 -515 659 -515 c 0
 311 -515 129 -332 129 3 c 0
 129 116 151 240 188 359 c 1
 241 339 l 1
 209 228 185 110 185 -3 c 0
 185 -293 354 -455 659 -455 c 0
EndSplineSet
EndChar

StartChar: uniFE73
Encoding: 65139 65139 127
GlifName: uniF_E_73
Width: 691
VWidth: 3091
GlyphClass: 2
Flags: HW
AnchorPoint: "Anchor110" 359 995 basechar 0
AnchorPoint: "Anchor107" 437 -282 basechar 0
LayerCount: 2
Fore
SplineSet
170 329 m 6
 170 344 l 1
 237 344 l 1
 237 328 l 2
 237 139 421 62 633 62 c 2
 709 62 l 1
 709 0 l 1
 623 0 l 2
 347 0 170 142 170 329 c 6
EndSplineSet
EndChar

StartChar: uniFE8E
Encoding: 65166 65166 153
GlifName: uniF_E_8E_
Width: 506
VWidth: 3091
GlyphClass: 2
Flags: HW
AnchorPoint: "Anchor110" 206 1512 basechar 0
AnchorPoint: "Anchor107" 270 -256 basechar 0
LayerCount: 2
Fore
SplineSet
182 1327 m 1
 233 1327 l 1
 233 361 l 2
 233 151 306 62 465 62 c 6
 525 62 l 5
 525 0 l 5
 465 0 l 6
 257 0 182 126 182 357 c 2
 182 1327 l 1
EndSplineSet
EndChar

StartChar: uniFEA2
Encoding: 65186 65186 173
GlifName: uniF_E_A_2
Width: 1399
VWidth: 3091
GlyphClass: 2
Flags: HW
AnchorPoint: "Anchor107" 679 -875 basechar 0
AnchorPoint: "Anchor110" 584 1150 basechar 0
LayerCount: 2
Fore
SplineSet
129 -235 m 0
 129 205 611 401 1050 476 c 1
 1050 476 971 504 920 523 c 0
 724 597 576 690 449 690 c 0
 340 690 255 625 201 561 c 2
 192 550 l 1
 143 574 l 1
 152 586 l 2
 230 689 334 748 450 748 c 0
 560 748 646 702 743 659 c 0
 935 573 1087 515 1175 498 c 1
 1175 434 l 1
 1110 427 1040 417 971 403 c 1
 971 130 1069 62 1338 62 c 2
 1417 62 l 1
 1417 0 l 1
 1341 0 l 2
 1034 0 921 89 921 392 c 1
 553 306 184 111 184 -225 c 0
 184 -538 450 -637 771 -637 c 4
 906 -637 1057 -615 1184 -566 c 5
 1198 -617 l 5
 1077 -666 913 -691 756 -691 c 4
 415 -691 129 -570 129 -235 c 0
EndSplineSet
EndChar

StartChar: uniFEA3
Encoding: 65187 65187 174
GlifName: uniF_E_A_3
Width: 1362
VWidth: 3091
GlyphClass: 2
Flags: HW
AnchorPoint: "Anchor110" 621 1123 basechar 0
AnchorPoint: "Anchor107" 581 -251 basechar 0
LayerCount: 2
Fore
SplineSet
-18 62 m 1
 150 62 l 2
 523 62 852 271 1152 428 c 1
 1152 428 1073 456 1022 474 c 24
 826 543 646 653 519 653 c 0
 410 653 325 588 271 524 c 2
 262 513 l 1
 213 537 l 1
 222 549 l 2
 300 652 404 711 520 711 c 0
 630 711 716 665 813 622 c 0
 1005 536 1157 478 1245 461 c 1
 1243 395 l 5
 1123 361 1043 303 882 218 c 0
 627 83 394 0 147 0 c 2
 -18 0 l 1
 -18 62 l 1
EndSplineSet
Position2: "Single Positioning lookup 2 subtable" dx=0 dy=0 dh=-168 dv=0
Position2: "Single Positioning lookup 1 subtable" dx=0 dy=0 dh=-100 dv=0
EndChar

StartChar: uniFEA4
Encoding: 65188 65188 175
GlifName: uniF_E_A_4
Width: 1416
VWidth: 3091
GlyphClass: 2
Flags: HW
AnchorPoint: "Anchor110" 621 1123 basechar 0
AnchorPoint: "Anchor107" 581 -251 basechar 0
LayerCount: 2
Fore
SplineSet
1434 62 m 1
 1434 0 l 1
 1375 0 l 2
 1100 0 1031 92 998 283 c 1
 739 140 451 0 147 0 c 2
 -18 0 l 1
 -18 62 l 1
 150 62 l 2
 523 62 852 271 1152 428 c 1
 1152 428 1073 456 1022 474 c 24
 826 543 645 653 519 653 c 0
 410 653 325 588 271 524 c 2
 262 513 l 1
 213 537 l 1
 222 549 l 2
 300 652 404 711 520 711 c 0
 629 711 716 665 813 622 c 0
 1005 536 1157 478 1245 461 c 1
 1243 395 l 5
 1167 373 1118 345 1044 305 c 5
 1083 97 1163 62 1375 62 c 2
 1434 62 l 1
EndSplineSet
EndChar

StartChar: uniFEAA
Encoding: 65194 65194 181
GlifName: uniF_E_A_A_
Width: 1059
VWidth: 3091
GlyphClass: 2
Flags: HW
AnchorPoint: "Anchor107" 425 -255 basechar 0
AnchorPoint: "Anchor110" 486 1127 basechar 0
LayerCount: 2
Fore
SplineSet
713 289 m 0
 713 348 683 408 654 472 c 2
 502 820 l 1
 553 843 l 1
 757 368 l 2
 824 212 858 62 1019 62 c 2
 1078 62 l 1
 1078 0 l 1
 1019 0 l 2
 855 0 807 112 756 225 c 1
 716 55 501 1 301 1 c 0
 233 1 178 7 129 16 c 1
 129 77 l 1
 183 67 234 62 286 62 c 0
 493 62 713 117 713 289 c 0
EndSplineSet
EndChar

StartChar: uniFEAE
Encoding: 65198 65198 185
GlifName: uniF_E_A_E_
Width: 751
VWidth: 2242
GlyphClass: 2
Flags: HW
AnchorPoint: "Anchor107" 302 -654 basechar 0
AnchorPoint: "Anchor110" 368 827 basechar 0
LayerCount: 2
Fore
SplineSet
710 0 m 2
 602 0 535 49 503 115 c 1
 523 -259 315 -461 55 -528 c 1
 38 -479 l 1
 310 -398 450 -210 450 65 c 0
 450 163 432 272 395 391 c 1
 447 408 l 1
 488 261 l 6
 517 150 582 62 710 62 c 2
 769 62 l 1
 769 0 l 1
 710 0 l 2
EndSplineSet
EndChar

StartChar: uniFEB2
Encoding: 65202 65202 189
GlifName: uniF_E_B_2
Width: 2523
VWidth: 2144
GlyphClass: 2
Flags: HW
AnchorPoint: "Anchor107" 663 -754 basechar 0
AnchorPoint: "Anchor110" 1703 913 basechar 0
LayerCount: 2
Fore
SplineSet
659 -455 m 4
 1010 -455 1141 -261 1141 -3 c 0
 1141 116 1113 249 1066 383 c 1
 1125 407 l 1
 1164 271 l 2
 1204 142 1285 62 1453 62 c 0
 1631 62 1711 191 1711 365 c 0
 1711 394 1708 418 1704 477 c 1
 1752 483 l 1
 1764 332 l 2
 1773 197 1844 62 1993 62 c 0
 2146 62 2203 210 2203 363 c 0
 2203 402 2201 433 2197 498 c 1
 2244 504 l 1
 2256 332 l 2
 2265 191 2357 62 2482 62 c 2
 2542 62 l 1
 2542 0 l 1
 2482 0 l 2
 2351 0 2263 89 2233 217 c 1
 2209 95 2138 0 1995 0 c 0
 1835 0 1763 101 1742 210 c 1
 1707 98 1613 0 1452 0 c 0
 1334 0 1233.61132812 47 1192.61132812 96 c 1
 1225.16699219 -256.016601562 1082.40820312 -515 659 -515 c 4
 311 -515 129 -332 129 3 c 4
 129 116 151 240 188 359 c 5
 241 339 l 5
 209 228 185 110 185 -3 c 4
 185 -293 354 -455 659 -455 c 4
EndSplineSet
EndChar

StartChar: uniFEB3
Encoding: 65203 65203 190
GlifName: uniF_E_B_3
Width: 1595
VWidth: 2144
GlyphClass: 2
Flags: HW
AnchorPoint: "Anchor107" 777 -250 basechar 0
AnchorPoint: "Anchor110" 916 931 basechar 0
LayerCount: 2
Fore
SplineSet
667 0 m 0
 503 0 430 93 399 215 c 1
 347 76 267 0 52 0 c 2
 -18 0 l 1
 -18 62 l 1
 54 62 l 2
 252 62 370 164 370 365 c 0
 370 394 368 408 364 467 c 1
 411 473 l 1
 423 332 l 2
 433 192 513 62 668 62 c 0
 846 62 926 191 926 365 c 0
 926 394 923 408 919 467 c 1
 967 473 l 1
 979 332 l 2
 988 197 1059 62 1208 62 c 0
 1366 62 1414 203 1414 357 c 0
 1414 437 1402 521 1385 590 c 1
 1440 606 l 1
 1459 529 1471 444 1471 362 c 0
 1471 172 1406 1 1210 0 c 0
 1050 0 978 101 957 210 c 1
 922 98 829 0 667 0 c 0
EndSplineSet
Position2: "Single Positioning lookup 2 subtable" dx=0 dy=0 dh=-168 dv=0
Position2: "Single Positioning lookup 1 subtable" dx=0 dy=0 dh=-84 dv=0
EndChar

StartChar: uniFEB4
Encoding: 65204 65204 191
GlifName: uniF_E_B_4
Width: 1739
VWidth: 2144
GlyphClass: 2
Flags: HW
AnchorPoint: "Anchor107" 777 -250 basechar 0
AnchorPoint: "Anchor110" 916 931 basechar 0
LayerCount: 2
Fore
SplineSet
1210 0 m 0
 1050 0 978 101 957 210 c 1
 922 98 829 0 667 0 c 0
 503 0 430 93 399 215 c 1
 347 76 267 0 52 0 c 2
 -18 0 l 1
 -18 62 l 1
 54 62 l 2
 252 62 370 164 370 365 c 0
 370 394 368 408 364 467 c 5
 411 473 l 5
 423 332 l 2
 433 192 513 62 668 62 c 0
 846 62 926 191 926 365 c 0
 926 394 923 408 919 467 c 5
 967 473 l 5
 979 332 l 2
 988 197 1059 62 1208 62 c 0
 1362 62 1418 210 1418 363 c 0
 1418 402 1416 423 1412 488 c 5
 1459 494 l 5
 1471 332 l 2
 1480 191 1572 62 1697 62 c 2
 1757 62 l 1
 1757 0 l 1
 1697 0 l 2
 1566 0 1478 89 1448 217 c 1
 1424 95 1354 0 1210 0 c 0
EndSplineSet
EndChar

StartChar: uniFEBA
Encoding: 65210 65210 197
GlifName: uniF_E_B_A_
Width: 2572
VWidth: 3091
GlyphClass: 2
Flags: HW
AnchorPoint: "Anchor107" 663 -754 basechar 0
AnchorPoint: "Anchor110" 1999 1120 basechar 0
LayerCount: 2
Fore
SplineSet
659 -455 m 0
 1010 -455 1141 -261 1141 -3 c 0
 1141 116 1113 249 1066 383 c 1
 1125 407 l 1
 1163 278 l 6
 1195 176 1249 100 1357 74 c 1
 1523 356 1753 686 2036 686 c 0
 2226 686 2366 546 2366 372 c 0
 2366 248 2318 177 2243 118 c 1
 2342 70 2382 62 2531 62 c 2
 2590 62 l 1
 2590 0 l 1
 2531 0 l 2
 2359 0 2278 33 2200 93 c 1
 2070 18 1888 0 1688 0 c 2
 1565 0 l 2
 1365 0 1281.61132812 12 1192.61132812 96 c 1
 1225.16662667 -256.0163363 1082.40793316 -515 659 -515 c 0
 311 -515 129 -332 129 3 c 0
 129 116 151 240 188 359 c 1
 241 339 l 1
 209 228 185 110 185 -3 c 0
 185 -293 354 -455 659 -455 c 0
2043 624 m 0
 1770 624 1562 295 1414 62 c 1
 1684 62 l 2
 1979 62 2310 96 2310 360 c 0
 2310 514 2192 624 2043 624 c 0
EndSplineSet
EndChar

StartChar: uniFEBB
Encoding: 65211 65211 198
GlifName: uniF_E_B_B_
Width: 1683
VWidth: 3091
GlyphClass: 2
Flags: HW
AnchorPoint: "Anchor110" 1168 1110 basechar 0
AnchorPoint: "Anchor107" 712 -256 basechar 0
LayerCount: 2
Fore
SplineSet
1232 624 m 4
 959 624 751 295 603 62 c 5
 873 62 l 6
 1169 62 1499 96 1499 360 c 4
 1499 514 1382 624 1232 624 c 4
546 74 m 5
 712 356 932 686 1225 686 c 4
 1417 686 1555 546 1555 372 c 4
 1555 59 1234 0 877 0 c 6
 754 0 l 6
 553 0 406 15 348 198 c 1
 295 77 208 0 42 0 c 2
 -19 0 l 1
 -19 62 l 1
 43 62 l 2
 235 68 318 179 318 364 c 0
 318 412 315 447 312 498 c 1
 361 504 l 1
 375 331 l 2
 385.362556017 202.948414938 439 100 546 74 c 5
EndSplineSet
Position2: "Single Positioning lookup 2 subtable" dx=0 dy=0 dh=-168 dv=0
Position2: "Single Positioning lookup 1 subtable" dx=0 dy=0 dh=-157 dv=0
EndChar

StartChar: uniFEBC
Encoding: 65212 65212 199
GlifName: uniF_E_B_C_
Width: 1683
VWidth: 3091
GlyphClass: 2
Flags: HW
AnchorPoint: "Anchor110" 1168 1110 basechar 0
AnchorPoint: "Anchor107" 712 -256 basechar 0
LayerCount: 2
Fore
SplineSet
1232 624 m 4
 959 624 751 295 603 62 c 1
 873 62 l 2
 1168 62 1499 96 1499 360 c 4
 1499 514 1381 624 1232 624 c 4
877 0 m 2
 754 0 l 2
 553 0 406 15 348 198 c 1
 294 77 208 0 42 0 c 2
 -19 0 l 1
 -19 62 l 1
 43 62 l 2
 235 68 318 179 318 364 c 0
 318 412 315 447 312 498 c 1
 361 504 l 1
 375 331 l 2
 385 203 439 99 546 73 c 1
 712 355 932 686 1225 686 c 4
 1415 686 1555 546 1555 372 c 4
 1555 248 1507 177 1432 118 c 5
 1531 70 1571 62 1720 62 c 6
 1779 62 l 5
 1779 0 l 5
 1720 0 l 6
 1548 0 1467 33 1389 93 c 5
 1259 18 1077 0 877 0 c 2
EndSplineSet
EndChar

StartChar: uniFEC2
Encoding: 65218 65218 205
GlifName: uniF_E_C_2
Width: 1534
VWidth: 3091
GlyphClass: 2
Flags: HW
AnchorPoint: "Anchor110" 456 1477 basechar 0
AnchorPoint: "Anchor107" 632 -252 basechar 0
LayerCount: 2
Fore
SplineSet
1003 624 m 0
 737 624 523 295 375 62 c 1
 644 62 l 2
 940 62 1271 96 1271 360 c 0
 1271 514 1153 624 1003 624 c 0
997 686 m 0
 1188 686 1327 546 1327 372 c 0
 1327 248 1278 177 1203 118 c 5
 1302 70 1342 62 1491 62 c 2
 1550 62 l 1
 1550 0 l 1
 1491 0 l 2
 1319 0 1238 33 1160 93 c 1
 1030 18 849 0 648 0 c 2
 129 0 l 1
 129 62 l 1
 310 62 l 1
 343 118 405 202 439 258 c 1
 439 1327 l 1
 491 1327 l 1
 491 330 l 1
 602 479 767 685 997 686 c 0
EndSplineSet
EndChar

StartChar: uniFEC3
Encoding: 65219 65219 206
GlifName: uniF_E_C_3
Width: 1304
VWidth: 3091
GlyphClass: 2
Flags: HW
AnchorPoint: "Anchor107" 506 -252 basechar 0
AnchorPoint: "Anchor110" 306 1476 basechar 0
LayerCount: 2
Fore
SplineSet
852 624 m 0
 584 624 370 294 223 62 c 1
 493 62 l 2
 789 62 1119 96 1119 360 c 0
 1119 514 1002 624 852 624 c 0
158 62 m 1
 191 118 253 202 287 258 c 1
 287 1327 l 1
 339 1327 l 1
 339 330 l 1
 450 479 618 686 845 686 c 0
 1033 686 1175 543 1175 373 c 0
 1175 59 855 0 497 0 c 2
 -19 0 l 1
 -19 62 l 1
 158 62 l 1
EndSplineSet
Position2: "Single Positioning lookup 2 subtable" dx=0 dy=0 dh=-168 dv=0
Position2: "Single Positioning lookup 1 subtable" dx=0 dy=0 dh=-157 dv=0
EndChar

StartChar: uniFEC4
Encoding: 65220 65220 207
GlifName: uniF_E_C_4
Width: 1382
VWidth: 3091
GlyphClass: 2
Flags: HW
AnchorPoint: "Anchor110" 303 1474 basechar 0
AnchorPoint: "Anchor107" 506 -252 basechar 0
LayerCount: 2
Fore
SplineSet
851 624 m 0
 579 624 371 295 223 62 c 1
 492 62 l 2
 788 62 1119 96 1119 360 c 0
 1119 514 1001 624 851 624 c 0
845 686 m 0
 1033 686 1175 546 1175 372 c 0
 1175 248 1124 168 1051 118 c 5
 1150 70 1190 62 1339 62 c 2
 1401 62 l 1
 1401 0 l 1
 1339 0 l 2
 1167 0 1086 33 1008 93 c 1
 878 18 697 0 496 0 c 2
 -18 0 l 1
 -18 62 l 1
 158 62 l 1
 191 118 253 202 287 258 c 1
 287 1327 l 1
 339 1327 l 1
 339 330 l 1
 450 479 615 686 845 686 c 0
EndSplineSet
EndChar

StartChar: uniFECA
Encoding: 65226 65226 213
GlifName: uniF_E_C_A_
Width: 1200
VWidth: 3091
GlyphClass: 2
Flags: HW
AnchorPoint: "Anchor107" 604 -875 basechar 0
AnchorPoint: "Anchor110" 597 1160 basechar 0
LayerCount: 2
Fore
SplineSet
603 686 m 0
 468 686 323 656 217 621 c 1
 361 439 562 258 603 225 c 1
 642 256 849 442 991 621 c 1
 885 656 739 686 603 686 c 0
552 201 m 1
 471 272 175 550 175 615 c 0
 175 709 478 743 603 743 c 0
 727 743 1033 707 1033 615 c 0
 1033 546 729 264 648 198 c 1
 804 95 940 62 1160 62 c 2
 1219 62 l 1
 1219 0 l 1
 1160 0 l 2
 959 0 803 26 602 167 c 1
 417 56 183 -57 183 -271 c 0
 183 -534 419 -637 693 -637 c 0
 796 -637 907 -628 1013 -592 c 1
 1023 -644 l 1
 927 -678 811 -691 688 -691 c 0
 378 -691 129 -568 129 -271 c 0
 129 -21 397 101 552 201 c 1
EndSplineSet
EndChar

StartChar: uniFECB
Encoding: 65227 65227 214
GlifName: uniF_E_C_B_
Width: 1048
VWidth: 3091
GlyphClass: 2
Flags: HW
AnchorPoint: "Anchor110" 577 1183 basechar 0
AnchorPoint: "Anchor107" 509 -251 basechar 0
LayerCount: 2
Fore
SplineSet
428 62 m 1
 350 122 239 242 239 423 c 0
 239 597 395 746 578 746 c 0
 656 746 745 720 843 660 c 1
 824 617 l 1
 757 651 678 685 589 685 c 0
 434 685 295 578 295 416 c 0
 295 259 403 158 436 129 c 4
 473 96 499 77 522 83 c 2
 919 190 l 1
 919 134 l 1
 569 27 472 0 179 0 c 2
 -18 0 l 1
 -18 62 l 1
 428 62 l 1
EndSplineSet
Position2: "Single Positioning lookup 2 subtable" dx=0 dy=0 dh=-168 dv=0
Position2: "Single Positioning lookup 1 subtable" dx=0 dy=0 dh=-84 dv=0
EndChar

StartChar: uniFECC
Encoding: 65228 65228 215
GlifName: uniF_E_C_C_
Width: 1172
VWidth: 3094
GlyphClass: 2
Flags: HW
AnchorPoint: "Anchor107" 603 -248 basechar 0
AnchorPoint: "Anchor110" 627 1095 basechar 0
LayerCount: 2
Fore
SplineSet
622 606 m 0
 487 606 342 576 236 541 c 1
 380 359 581 178 622 145 c 1
 661 176 868 362 1010 541 c 1
 904 576 758 606 622 606 c 0
622 663 m 0
 746 663 1052 627 1052 535 c 0
 1052 466 751 185 670 119 c 1
 789 69 880 62 1031 62 c 2
 1190 62 l 5
 1190 0 l 5
 1031 0 l 2
 866 0 734 14 622 87 c 1
 518 16 318 0 148 0 c 2
 -18 0 l 1
 -18 62 l 1
 149 62 l 2
 309 62 452 67 574 119 c 1
 490 190 192 470 192 535 c 0
 192 629 497 663 622 663 c 0
EndSplineSet
EndChar

StartChar: uniFEDA
Encoding: 65242 65242 229
GlifName: uniF_E_D_A_
Width: 1853
VWidth: 3094
GlyphClass: 2
Flags: HW
AnchorPoint: "Anchor110" 916 1156 basechar 0
AnchorPoint: "Anchor107" 882 -237 basechar 0
LayerCount: 2
Fore
SplineSet
825 62 m 2
 983 62 l 2
 1302 62 1531 84 1531 433 c 2
 1531 1327 l 1
 1582 1327 l 1
 1582 436 l 2
 1582 213 1621 62 1812 62 c 2
 1871 62 l 1
 1871 0 l 1
 1812 0 l 2
 1634 0 1574 96 1549 231 c 1
 1474 42 1343 0 990 0 c 2
 825 0 l 2
 439 0 129 76 129 425 c 0
 129 488 140 550 160 610 c 1
 207 592 l 1
 195 541 183 491 183 443 c 0
 183 116 483 62 825 62 c 2
EndSplineSet
Refer: 420 -1 N 1.035 0 0 1.035 -73 -60 2
EndChar

StartChar: uniFEDB
Encoding: 65243 65243 230
GlifName: uniF_E_D_B_
Width: 879
VWidth: 3091
GlyphClass: 2
Flags: HW
AnchorPoint: "Anchor110" 344 1304 basechar 0
AnchorPoint: "Anchor107" 326 -248 basechar 0
LayerCount: 2
Fore
SplineSet
95 984 m 1
 286 851 719 568 719 290 c 4
 719 58 494 0 224 0 c 2
 -18 0 l 1
 -18 62 l 1
 223 62 l 2
 441 62 665 100 665 294 c 4
 665 515 298 764 135 893 c 0
 102 919 48 948 48 980 c 0
 48 1024 94 1040 153 1064 c 2
 819 1335 l 1
 819 1278 l 1
 95 984 l 1
EndSplineSet
Position2: "Single Positioning lookup 4 subtable" dx=0 dy=0 dh=-23 dv=0
Position2: "Single Positioning lookup 2 subtable" dx=0 dy=0 dh=-201 dv=0
Position2: "Single Positioning lookup 1 subtable" dx=0 dy=0 dh=-150 dv=0
Position2: "Single Positioning lookup 0 subtable" dx=0 dy=0 dh=189 dv=0
EndChar

StartChar: uniFEDC
Encoding: 65244 65244 231
GlifName: uniF_E_D_C_
Width: 1046
VWidth: 3091
GlyphClass: 2
Flags: HW
AnchorPoint: "Anchor110" 344 1304 basechar 0
AnchorPoint: "Anchor107" 326 -248 basechar 0
LayerCount: 2
Fore
SplineSet
95 984 m 1
 274 859 664 606 714 345 c 0
 738 221 853 62 1004 62 c 6
 1064 62 l 1
 1064 0 l 1
 1004 0 l 2
 870 0 766 92 706 216 c 1
 670 46 467 0 224 0 c 2
 -18 0 l 1
 -18 62 l 1
 223 62 l 2
 441 62 665 100 665 294 c 0
 665 515 298 764 135 893 c 0
 102 919 48 948 48 980 c 0
 48 1024 94 1040 153 1064 c 2
 819 1335 l 1
 819 1278 l 1
 95 984 l 1
EndSplineSet
EndChar

StartChar: uniFEDE
Encoding: 65246 65246 233
GlifName: uniF_E_D_E_
Width: 1352
VWidth: 3091
GlyphClass: 2
Flags: HW
AnchorPoint: "Anchor107" 609 -696 basechar 0
AnchorPoint: "Anchor110" 581 992 basechar 0
LayerCount: 2
Fore
SplineSet
599 -496 m 4
 251 -496 129 -302 129 -27 c 0
 129 86 151 210 188 329 c 1
 241 309 l 1
 209 198 185 80 185 -33 c 0
 185 -263 294 -436 599 -436 c 0
 891 -436 1020 -288 1020 38 c 2
 1020 1327 l 1
 1070 1327 l 1
 1070 349 l 2
 1070 177 1149 62 1311 62 c 2
 1370 62 l 1
 1370 0 l 1
 1311 0 l 2
 1206 0 1116 30 1071 135 c 1
 1077 -209 1028 -496 599 -496 c 4
EndSplineSet
EndChar

StartChar: uniFEDF
Encoding: 65247 65247 234
GlifName: uniF_E_D_F_
Width: 560
VWidth: 3091
GlyphClass: 2
Flags: HW
AnchorPoint: "Anchor107" 231 -245 basechar 0
AnchorPoint: "Anchor110" 343 1478 basechar 0
LayerCount: 2
Fore
SplineSet
-18 62 m 1
 51 62 l 2
 255 62 327 177 327 360 c 2
 327 1327 l 1
 378 1327 l 1
 378 361 l 2
 378 118 287 0 50 0 c 2
 -18 0 l 1
 -18 62 l 1
EndSplineSet
Position2: "Single Positioning lookup 2 subtable" dx=0 dy=0 dh=-147 dv=0
Position2: "Single Positioning lookup 1 subtable" dx=0 dy=0 dh=-84 dv=0
Position2: "Single Positioning lookup 0 subtable" dx=0 dy=0 dh=137 dv=0
EndChar

StartChar: uniFEE0
Encoding: 65248 65248 235
GlifName: uniF_E_E_0
Width: 651
VWidth: 3091
GlyphClass: 2
Flags: HW
AnchorPoint: "Anchor107" 231 -245 basechar 0
AnchorPoint: "Anchor110" 342 1482 basechar 0
LayerCount: 2
Fore
SplineSet
327 375 m 2
 327 1327 l 1
 378 1327 l 1
 378 375 l 2
 378 207 447 62 610 62 c 2
 669 62 l 1
 669 0 l 1
 610 0 l 2
 460 0 386 102 356 200 c 1
 303 53 218 0 50 0 c 2
 -18 0 l 1
 -18 62 l 1
 50 62 l 2
 250 62 327 166 327 375 c 2
EndSplineSet
EndChar

StartChar: uniFEE2
Encoding: 65250 65250 237
GlifName: uniF_E_E_2
Width: 1268
VWidth: 2744
GlyphClass: 2
Flags: HW
AnchorPoint: "Anchor110" 722 965 basechar 0
AnchorPoint: "Anchor107" 177 -790 basechar 0
LayerCount: 2
Fore
SplineSet
979 238 m 0
 979 401 875 540 724 540 c 0
 536 540 471 323 424 168 c 1
 515 140 692 44 786 44 c 0
 900 44 979 121 979 238 c 0
1026 306 m 0
 1039 217 1125 62 1228 62 c 2
 1287 62 l 1
 1287 0 l 1
 1228 0 l 2
 1137 0 1051 86 1020 162 c 1
 996 47 912 -12 784 -12 c 0
 636 -12 475 114 375 114 c 0
 183 114 183 -112 183 -352 c 0
 183 -465 186 -541 192 -637 c 1
 137 -637 l 1
 132 -532 129 -443 129 -352 c 0
 129 -67 134 152 369 179 c 1
 425 375 500 597 720 597 c 0
 885 597 1002 468 1026 306 c 0
EndSplineSet
EndChar

StartChar: uniFEE3
Encoding: 65251 65251 238
GlifName: uniF_E_E_3
Width: 1062
VWidth: 3091
GlyphClass: 2
Flags: HW
AnchorPoint: "Anchor107" 560 -251 basechar 0
AnchorPoint: "Anchor110" 612 977 basechar 0
LayerCount: 2
Fore
SplineSet
630 540 m 0
 474 540 388 356 335 240 c 1
 388.461569653 184.130251534 442.387085322 134.291801271 497 97.6351449926 c 4
 555.777574388 58.1831334315 615.351384229 34 676 34 c 0
 801 34 884 113 884 243 c 0
 884 406 796 540 630 540 c 0
678 -23 m 0
 506 -23 401 99 310 188 c 1
 249 89 173 -1.60428730688e-14 42 0 c 2
 -18 0 l 1
 -18 62 l 1
 42 62 l 2
 333.704603999 62 297.966288409 597 626 597 c 0
 817 597 935 451 935 259 c 0
 935 79 843 -23 678 -23 c 0
EndSplineSet
Substitution2: "Single Substitution 3-1" uniFEE3.long
Position2: "Single Positioning lookup 2 subtable" dx=0 dy=0 dh=-168 dv=0
Position2: "Single Positioning lookup 1 subtable" dx=0 dy=0 dh=-157 dv=0
EndChar

StartChar: uniFEE4
Encoding: 65252 65252 239
GlifName: uniF_E_E_4
Width: 1174
VWidth: 3091
GlyphClass: 2
Flags: HW
AnchorPoint: "Anchor110" 611 977 basechar 0
AnchorPoint: "Anchor107" 560 -251 basechar 0
LayerCount: 2
Fore
SplineSet
42 0 m 2
 -18 0 l 1
 -18 62 l 1
 42 62 l 2
 334 62 297.965820312 597 626 597 c 0
 805 597 917 472 932 299 c 0
 941 190 1030 62 1133 62 c 2
 1192 62 l 1
 1192 0 l 1
 1133 0 l 2
 1042 0 956 86 925 162 c 1
 898 43 801 -23 678 -23 c 0
 506 -23 400 100 310 188 c 1
 249 89 173 -1.60428730688e-14 42 0 c 2
630 540 m 0
 474 540 388 356 335 240 c 1
 388.461569653 184.130251534 442.387085322 134.291801271 497 97.6351449926 c 4
 555.777574388 58.1831334315 615.351384229 34 676 34 c 0
 801 34 884 113 884 243 c 0
 884 406 796 540 630 540 c 0
EndSplineSet
Substitution2: "Single Substitution 3-1" uniFEE4.long
EndChar

StartChar: uniFEEA
Encoding: 65258 65258 245
GlifName: uniF_E_E_A_
Width: 1032
VWidth: 3091
GlyphClass: 2
Flags: HW
AnchorPoint: "Anchor110" 658 1219 basechar 0
AnchorPoint: "Anchor107" 456 -250 basechar 0
LayerCount: 2
Fore
SplineSet
991 0 m 2
 805 0 752 137 727 330 c 1
 678 212 548 143 416 143 c 0
 251 143 129 234 129 389 c 0
 129 615 428 737 657 808 c 1
 652 841 l 1
 706 851 l 1
 785 300 l 6
 807 149 869 62 991 62 c 2
 1050 62 l 1
 1050 0 l 1
 991 0 l 2
708 453 m 0
 708 475 706 497 703 521 c 2
 666 755 l 1
 480 687 183 586 183 392 c 0
 183 262 283 198 410 198 c 0
 568 198 708 303 708 453 c 0
EndSplineSet
EndChar

StartChar: uniFEEB
Encoding: 65259 65259 246
GlifName: uniF_E_E_B_
Width: 1393
VWidth: 3091
GlyphClass: 2
Flags: HW
AnchorPoint: "Anchor110" 639 1199 basechar 0
AnchorPoint: "Anchor107" 536 -254 basechar 0
LayerCount: 2
Fore
SplineSet
275 417 m 0
 275 256 407 164 526 117 c 1
 649 162 764 259 764 411 c 0
 764 553 643 649 528 649 c 0
 382 649 275 557 275 417 c 0
534 708 m 1
 559 758 l 1
 855 654 1264 478 1264 279 c 0
 1264 82 1133 5 922 5 c 0
 782 5 635 30 519 64 c 5
 406 26 224 -1.77573785876e-14 79 0 c 2
 -18 0 l 1
 -18 62 l 1
 66 62 l 2
 211.900581326 62 321 74 454 91 c 1
 350 134 222 246 222 415 c 0
 222 583 350 700 519 700 c 0
 675 700 815 570 815 417 c 0
 815 239 703 141 586 92 c 1
 711 69 790 57 904 57 c 0
 1081 57 1212 106 1212 274 c 0
 1212 449 762 642 534 708 c 1
EndSplineSet
Position2: "Single Positioning lookup 2 subtable" dx=0 dy=0 dh=-168 dv=0
Position2: "Single Positioning lookup 1 subtable" dx=0 dy=0 dh=-157 dv=0
EndChar

StartChar: uniFEEC
Encoding: 65260 65260 247
GlifName: uniF_E_E_C_
Width: 1020
VWidth: 3091
GlyphClass: 2
Flags: HW
AnchorPoint: "Anchor107" 596 -718 basechar 0
AnchorPoint: "Anchor110" 549 1061 basechar 0
LayerCount: 2
Fore
SplineSet
-18 0 m 1
 -18 62 l 1
 243 62 l 1
 243 108 l 2
 243 424 325 707 545 707 c 0
 681 707 760 597 760 447 c 0
 760 177 560 -1 298 -1 c 5
 318 -121 409 -348 619 -465 c 1
 600 -148 660 62 978 62 c 2
 1039 62 l 1
 1039 0 l 1
 978 0 l 2
 681 0 669 -177 669 -385 c 0
 669 -407 672 -456 673 -481 c 1
 619 -526 l 1
 384 -398 277 -181 248 0 c 5
 -18 0 l 1
543 651 m 0
 367 651 298 393 298 108 c 2
 298 61 l 1
 558 61 709 210 709 447 c 0
 709 559 657 651 543 651 c 0
EndSplineSet
Substitution2: "Single Substitution 3-1" uniFEEC.long
EndChar

StartChar: uniFEEE
Encoding: 65262 65262 249
GlifName: uniF_E_E_E_
Width: 881
VWidth: 2245
GlyphClass: 2
Flags: HW
AnchorPoint: "Anchor107" 401 -644 basechar 0
AnchorPoint: "Anchor110" 415 1017 basechar 0
LayerCount: 2
Fore
SplineSet
405 621 m 0
 676 621 724 309 724 62 c 1
 900 62 l 1
 900 0 l 1
 719 0 l 1
 671 -303 501 -448 180 -526 c 1
 160 -476 l 1
 451 -402 628 -269 667 0 c 1
 448 0 l 2
 246 0 129 62 129 247 c 0
 129 435 219 621 405 621 c 0
438 62 m 2
 671 62 l 1
 667 272 632 561 403 561 c 4
 246 561 183 393 183 253 c 0
 183 106 290 62 438 62 c 2
EndSplineSet
EndChar

StartChar: uniFEF0
Encoding: 65264 65264 251
GlifName: uniF_E_F_0
Width: 1299
VWidth: 2831
GlyphClass: 2
Flags: HW
AnchorPoint: "Anchor107" 663 -754 basechar 0
AnchorPoint: "Anchor110" 502 607 basechar 0
LayerCount: 2
Fore
SplineSet
659 -515 m 4
 311 -515 129 -332 129 3 c 0
 129 86 140 192 177 321 c 1
 230 301 l 1
 198 180 185 80 185 -3 c 0
 185 -293 354 -455 659 -455 c 0
 931 -455 1190 -341 1190 -176 c 0
 1190 -57 1087 0 963 0 c 2
 852 0 l 2
 844 0 833 0 830 11 c 2
 818 50 l 2
 815 61 824 62 834 62 c 2
 1319 62 l 1
 1319 0 l 1
 1153 0 l 1
 1222 -44 1242 -112 1242 -173 c 0
 1242 -375 978 -515 659 -515 c 4
EndSplineSet
EndChar

StartChar: uniFEFB
Encoding: 65275 65275 262
GlifName: uniF_E_F_B_
Width: 1104
VWidth: 3091
GlyphClass: 3
Flags: HW
AnchorPoint: "Anchor106" 287 -259 baselig 1
AnchorPoint: "Anchor106" 861 -255 baselig 0
AnchorPoint: "Anchor109" 176 1405 baselig 1
AnchorPoint: "Anchor109" 892 1478 baselig 0
LayerCount: 2
Fore
SplineSet
249 0 m 0
 213 0 176 2 138 4 c 1
 138 63 l 1
 188 60 226 58 269 58 c 0
 357 58 403 60 456 69 c 1
 456 69 411 623 158 1223 c 1
 206 1244 l 1
 455 629 505 78 505 78 c 1
 756 145 872 249 872 564 c 2
 872 1327 l 1
 923 1327 l 1
 923 561 l 2
 923 166 730 0 249 0 c 0
EndSplineSet
Position2: "Single Positioning lookup 2 subtable" dx=0 dy=0 dh=-147 dv=0
Position2: "Single Positioning lookup 1 subtable" dx=0 dy=0 dh=-84 dv=0
Position2: "Single Positioning lookup 0 subtable" dx=0 dy=0 dh=137 dv=0
LCarets2: 1 0
Ligature2: "'rlig' Required Ligatures in Arabic lookup 5 subtable" uniFEDF uniFE8E
EndChar

StartChar: uniFEFC
Encoding: 65276 65276 263
GlifName: uniF_E_F_C_
Width: 1204
VWidth: 3091
GlyphClass: 3
Flags: HW
AnchorPoint: "Anchor106" 287 -259 baselig 1
AnchorPoint: "Anchor106" 861 -255 baselig 0
AnchorPoint: "Anchor109" 176 1405 baselig 1
AnchorPoint: "Anchor109" 892 1478 baselig 0
LayerCount: 2
Fore
SplineSet
505 78 m 1
 756 146 872 249 872 564 c 2
 872 1327 l 1
 923 1327 l 1
 923 511 l 2
 923 284 975 62 1163 62 c 2
 1222 62 l 1
 1222 0 l 1
 1163 0 l 2
 980 0 904 161 892 324 c 1
 811 116 640 0 249 0 c 0
 213 0 176 2 138 4 c 1
 138 63 l 1
 188 60 226 58 269 58 c 0
 357 58 393 62 456 69 c 1
 456 69 411 623 158 1223 c 1
 206 1244 l 1
 455 629 505 78 505 78 c 1
EndSplineSet
LCarets2: 1 0
Ligature2: "'rlig' Required Ligatures in Arabic lookup 5 subtable" uniFEE0 uniFE8E
EndChar

StartChar: arabic_dot
Encoding: 65536 -1 264
GlifName: arabic_dot
Width: 197
VWidth: 2812
GlyphClass: 2
Flags: HW
LayerCount: 2
Fore
SplineSet
96 172 m 5
 166 102 l 5
 96 32 l 5
 26 102 l 5
 96 172 l 5
EndSplineSet
EndChar

StartChar: arabic_2dots
Encoding: 65537 -1 265
GlifName: arabic_2dots
Width: 517
VWidth: 2812
GlyphClass: 2
Flags: HW
LayerCount: 2
Fore
SplineSet
367 166 m 5
 432 102 l 5
 367 36 l 5
 302 102 l 5
 367 166 l 5
147 166 m 5
 212 102 l 5
 147 36 l 5
 82 102 l 5
 147 166 l 5
EndSplineSet
EndChar

StartChar: arabic_3dots
Encoding: 65538 -1 266
GlifName: arabic_3dots
Width: 528
VWidth: 2805
GlyphClass: 2
Flags: HW
LayerCount: 2
Fore
SplineSet
255 327 m 5
 318 264 l 5
 255 201 l 5
 192 264 l 5
 255 327 l 5
376 129 m 5
 439 66 l 5
 376 3 l 5
 312 66 l 5
 376 129 l 5
134 129 m 5
 198 66 l 5
 134 3 l 5
 71 66 l 5
 134 129 l 5
EndSplineSet
EndChar

StartChar: arabic_3dots_a
Encoding: 65539 -1 267
GlifName: arabic_3dots_a
Width: 528
VWidth: 2820
GlyphClass: 2
Flags: HW
LayerCount: 2
Fore
SplineSet
255 -1 m 1
 318 -64 l 1
 255 -127 l 1
 192 -64 l 1
 255 -1 l 1
376 197 m 1
 439 134 l 1
 376 71 l 1
 312 134 l 1
 376 197 l 1
134 197 m 1
 198 134 l 1
 134 71 l 1
 71 134 l 1
 134 197 l 1
EndSplineSet
EndChar

StartChar: uni066E.fina
Encoding: 65540 -1 268
GlifName: uni066E_.fina
Width: 1873
VWidth: 3091
GlyphClass: 2
Flags: HW
AnchorPoint: "Anchor110" 868 943 basechar 0
AnchorPoint: "Anchor107" 876 -258 basechar 0
LayerCount: 2
Fore
SplineSet
1547 498 m 5
 1595 504 l 5
 1608 321 l 6
 1617 180 1705 62 1832 62 c 6
 1891 62 l 5
 1891 0 l 5
 1832 0 l 6
 1691 0 1594 109 1574 227 c 5
 1467 51 1314 0 994 0 c 6
 825 0 l 2
 439 0 129 75 129 425 c 0
 129 488 140 550 160 610 c 1
 207 592 l 1
 195 542 183 490 183 442 c 0
 183 115 483 62 825 62 c 2
 992 62 l 6
 1307 62 1552 128 1552 400 c 4
 1552 438 1549 463 1547 498 c 5
EndSplineSet
EndChar

StartChar: uni06A1.fina
Encoding: 65541 -1 269
GlifName: uni06A_1.fina
Width: 1873
VWidth: 3091
GlyphClass: 2
Flags: HW
AnchorPoint: "Anchor107" 866 -258 basechar 0
AnchorPoint: "Anchor110" 1350 1204 basechar 0
LayerCount: 2
Fore
SplineSet
1393 660 m 4
 1268 660 1152 513 1152 408 c 4
 1152 271 1310 147 1393 97 c 5
 1489 148 1641 269 1641 410 c 4
 1641 517 1518 660 1393 660 c 4
825 62 m 2
 896 62 l 2
 976 62 1240 67 1335 73 c 5
 1236 135 1100 255 1100 412 c 4
 1100 561 1254 718 1393 718 c 4
 1537 718 1692 562 1692 410 c 4
 1692 253 1554 134 1453 72 c 5
 1539 67 1723 62 1796 62 c 6
 1892 62 l 5
 1892 0 l 5
 1799 0 l 6
 1678 0 1497 8 1392 45 c 5
 1287 3 1021 0 896 0 c 2
 825 0 l 2
 439 0 129 75 129 425 c 0
 129 488 140 550 160 610 c 1
 207 592 l 1
 195 542 183 490 183 442 c 0
 183 115 483 62 825 62 c 2
EndSplineSet
EndChar

StartChar: uni06A1.init
Encoding: 65542 -1 270
GlifName: uni06A_1.init
Width: 906
VWidth: 3091
GlyphClass: 2
Flags: HW
AnchorPoint: "Anchor110" 449 1323 basechar 0
AnchorPoint: "Anchor107" 366 -262 basechar 0
LayerCount: 2
Fore
SplineSet
481 413 m 4
 569 413 650 435 727 457 c 5
 704 629 671 887 462 887 c 4
 310 887 235 732 235 585 c 4
 235 446 342 413 481 413 c 4
360 62 m 2
 641 62 729 102 729 399 c 5
 647 374 574 354 468 354 c 4
 285 354 185 420 185 582 c 4
 185 774 285 945 463 945 c 4
 713 945 781 625 781 407 c 4
 781 73 701 0 348 0 c 2
 -18 0 l 1
 -18 62 l 1
 360 62 l 2
EndSplineSet
EndChar

StartChar: uni06A1.medi
Encoding: 65543 -1 271
GlifName: uni06A_1.medi
Width: 1019
VWidth: 3091
GlyphClass: 2
Flags: HW
AnchorPoint: "Anchor110" 534 1168 basechar 0
AnchorPoint: "Anchor107" 533 -262 basechar 0
LayerCount: 2
Fore
SplineSet
539 660 m 0
 414 660 298 513 298 408 c 0
 298 271 456 147 539 97 c 1
 635 148 787 269 787 410 c 0
 787 517 664 660 539 660 c 0
838 410 m 0
 838 253 700 134 599 72 c 1
 685 67 869 62 942 62 c 2
 1038 62 l 1
 1038 0 l 1
 945 0 l 2
 824 0 643 8 538 45 c 1
 433 3 245 0 120 0 c 2
 -18 0 l 1
 -18 62 l 1
 120 62 l 2
 200 62 386 67 481 73 c 5
 382 135 246 255 246 412 c 0
 246 561 400 718 539 718 c 0
 683 718 838 562 838 410 c 0
EndSplineSet
EndChar

StartChar: uni066F.fina
Encoding: 65544 -1 272
GlifName: uni066F_.fina
Width: 1379
VWidth: 2834
GlyphClass: 2
Flags: HW
AnchorPoint: "Anchor107" 716 -710 basechar 0
AnchorPoint: "Anchor110" 937 1028 basechar 0
LayerCount: 2
Fore
SplineSet
659 -515 m 0
 311 -515 129 -332 129 3 c 0
 129 116 151 240 188 359 c 1
 241 339 l 1
 209 228 185 110 185 -3 c 0
 185 -293 354 -455 659 -455 c 0
 1009 -455 1175 -313 1175 0 c 5
 952 0 l 6
 750 0 632 57 632 247 c 4
 632 435 722 621 908 621 c 4
 1179 621 1231 309 1232 62 c 5
 1399 62 l 1
 1399 0 l 1
 1230 0 l 1
 1230 -366 1015 -515 659 -515 c 0
942 62 m 6
 1177 62 l 5
 1173 272 1145 561 906 561 c 4
 749 561 685 393 685 253 c 4
 685 106 794 62 942 62 c 6
EndSplineSet
EndChar

StartChar: arabic_gaf_bar
Encoding: 65545 -1 273
GlifName: arabic_gaf_bar
Width: 787
VWidth: 2900
GlyphClass: 2
Flags: HW
LayerCount: 2
Fore
SplineSet
-62 1596 m 5
 -62 1645 l 5
 668 1942 l 5
 668 1893 l 5
 -62 1596 l 5
EndSplineSet
EndChar

StartChar: guillemotleft
Encoding: 171 171 283
GlifName: guillemotleft
Width: 858
VWidth: 2075
Flags: HW
LayerCount: 2
Fore
SplineSet
403.592773438 6.8037109375 m 5
 374.39453125 -21.177734375 l 5
 239.05078125 144.302734375 171.193359375 268.177734375 171.193359375 392.052734375 c 4
 171.193359375 515.624023438 238.719726562 639.1953125 374.142578125 804.065429688 c 5
 403.635742188 775.467773438 l 5
 283.610351562 619.8359375 223.762695312 505.763671875 223.762695312 391.65234375 c 4
 223.762695312 277.345703125 283.81640625 163 403.592773438 6.8037109375 c 5
716.6015625 6.796875 m 5
 687.40234375 -21.185546875 l 5
 552.059570312 144.294921875 484.201171875 268.170898438 484.201171875 392.045898438 c 4
 484.201171875 515.6171875 551.727539062 639.188476562 687.150390625 804.05859375 c 5
 716.643554688 775.459960938 l 5
 596.619140625 619.829101562 536.770507812 505.755859375 536.770507812 391.64453125 c 4
 536.770507812 277.337890625 596.82421875 162.9921875 716.6015625 6.796875 c 5
EndSplineSet
EndChar

StartChar: guillemotright
Encoding: 187 187 284
GlifName: guillemotright
Width: 858
VWidth: 2075
Flags: HW
LayerCount: 2
Fore
SplineSet
454.244140625 6.8037109375 m 5
 574.020507812 163 634.07421875 277.345703125 634.07421875 391.65234375 c 4
 634.07421875 505.763671875 574.2265625 619.8359375 454.201171875 775.467773438 c 5
 483.694335938 804.065429688 l 5
 619.1171875 639.1953125 686.643554688 515.624023438 686.643554688 392.052734375 c 4
 686.643554688 268.177734375 618.786132812 144.302734375 483.442382812 -21.177734375 c 5
 454.244140625 6.8037109375 l 5
141.235351562 6.796875 m 5
 261.012695312 162.9921875 321.06640625 277.337890625 321.06640625 391.64453125 c 4
 321.06640625 505.755859375 261.217773438 619.829101562 141.193359375 775.459960938 c 5
 170.686523438 804.05859375 l 5
 306.109375 639.188476562 373.635742188 515.6171875 373.635742188 392.045898438 c 4
 373.635742188 268.170898438 305.778320312 144.294921875 170.434570312 -21.185546875 c 5
 141.235351562 6.796875 l 5
EndSplineSet
EndChar

StartChar: NameMe.302
Encoding: 65556 -1 293
GlifName: N_ameM_e.302
Width: 530
VWidth: 3091
Flags: HW
LayerCount: 2
Fore
SplineSet
490 0 m 2
 345 0 291 94 268 194 c 1
 241 90 198 0 40 0 c 2
 -18 0 l 1
 -18 62 l 1
 42 62 l 2
 172 62 241 126 241 385 c 2
 241 995 l 1
 291 995 l 1
 291 385 l 2
 291 81 407 62 490 62 c 2
 548 62 l 1
 548 0 l 1
 490 0 l 2
EndSplineSet
EndChar

StartChar: NameMe.303
Encoding: 65557 -1 294
GlifName: N_ameM_e.303
Width: 474
VWidth: 3091
Flags: HW
LayerCount: 2
Fore
SplineSet
-18 62 m 1
 43 62 l 2
 190 62 241 174 241 360 c 2
 241 1155 l 5
 293 1155 l 5
 293 362 l 2
 293 139 232 0 43 0 c 2
 -18 0 l 1
 -18 62 l 1
EndSplineSet
EndChar

StartChar: uniFDF2
Encoding: 65010 65010 295
GlifName: uniF_D_F_2
Width: 2456
VWidth: 3103
Flags: HW
AnchorPoint: "Anchor107" 526 -223 basechar 0
AnchorPoint: "Anchor110" 660 1195.52 basechar 0
LayerCount: 2
Fore
SplineSet
1279 1526 m 1
 1279 1785 l 1
 1317 1785 l 1
 1317 1526 l 1
 1279 1526 l 1
EndSplineSet
Refer: 52 1617 N 1 0 0 1 999 120 2
Refer: 245 65258 N 1 0 0 1 0 0 2
Refer: 293 -1 N 1 0 0 1 1045 0 2
Refer: 294 -1 N 1 0 0 1 1588 0 2
Refer: 15 1575 N 1 0 0 1 2043 0 2
LCarets2: 3 0 0 0
Ligature2: "'liga' Standard Ligatures in Arabic lookup 9 subtable" uni0627 uniFEDF uniFEE0 uniFEEA
EndChar

StartChar: NameMe.65564
Encoding: 65558 -1 297
GlifName: N_ameM_e.65564
Width: 506
VWidth: 3091
Flags: HW
LayerCount: 2
Fore
SplineSet
182 1193 m 1
 233 1193 l 1
 233 361 l 2
 233 143 316 62 464 62 c 2
 525 62 l 1
 525 0 l 1
 464 0 l 2
 255 0 182 122 182 361 c 2
 182 1193 l 1
EndSplineSet
EndChar

StartChar: NameMe.65565
Encoding: 65559 -1 298
GlifName: N_ameM_e.65565
Width: 720
VWidth: 3098
Flags: HW
LayerCount: 2
Fore
SplineSet
525 194 m 4
 540 194 567 192 593 185 c 1
 585 139 l 1
 563 143 542 146 525 146 c 0
 420 146 348 67 348 -11 c 0
 348 -57 374 -79 416 -79 c 2
 490 -79 l 2
 547 -79 604 -104 604 -167 c 0
 604 -313 455 -396 277 -396 c 0
 220 -396 170 -388 128 -373 c 1
 149 -329 l 1
 185 -343 227 -351 279 -351 c 0
 404 -351 561 -291 561 -178 c 0
 561 -138 522 -125 485 -125 c 2
 410 -125 l 2
 348 -125 304 -93 304 -19 c 0
 304 108 408 194 525 194 c 4
EndSplineSet
EndChar

StartChar: uni060D
Encoding: 1549 1549 299
GlifName: uni060D_
Width: 779
VWidth: 4090
Flags: HW
LayerCount: 2
Fore
SplineSet
618 1343 m 1
 665 1329 l 1
 141 -205 l 1
 94 -191 l 1
 618 1343 l 1
EndSplineSet
EndChar

StartChar: uni066E.init
Encoding: 65560 -1 300
GlifName: N_ameM_e.65541
Width: 558
VWidth: 3091
Flags: HW
AnchorPoint: "Anchor110" 309 960 basechar 0
AnchorPoint: "Anchor107" 208 -240 basechar 0
LayerCount: 2
Fore
SplineSet
92 0 m 2
 -18 0 l 1
 -18 62 l 1
 90 62 l 2
 310 62 374 177 374 348 c 0
 374 427 361 514 342 600 c 1
 398 615 l 1
 418 525 430 436 430 355 c 0
 430 142 346 0 92 0 c 2
EndSplineSet
EndChar

StartChar: uni066E.medi
Encoding: 65561 -1 301
GlifName: N_ameM_e.65542
Width: 690
VWidth: 3091
Flags: HW
AnchorPoint: "Anchor107" 284 -252 basechar 0
AnchorPoint: "Anchor110" 388 866 basechar 0
LayerCount: 2
Fore
SplineSet
366 498 m 1
 414 504 l 1
 426 333 l 2
 436 173 549 62 651 62 c 2
 709 62 l 1
 709 0 l 1
 651 0 l 2
 503 0 408 153 402 211 c 1
 363 82 241 0 71 0 c 2
 -18 0 l 1
 -18 62 l 1
 73 62 l 2
 252 62 370 157 371 373 c 0
 371 423 369 447 366 498 c 1
EndSplineSet
EndChar

StartChar: uni06BE
Encoding: 1726 1726 318
GlifName: uni06B_E_
Width: 1485
VWidth: 2834
Flags: HW
AnchorPoint: "Anchor110" 730 1223 basechar 0
AnchorPoint: "Anchor107" 504 -251 basechar 0
LayerCount: 2
Fore
SplineSet
54 62 m 5
 93 62 l 5
 93 0 l 5
 73 0 l 5
 54 62 l 5
EndSplineSet
Refer: 246 65259 N 1 0 0 1 92 0 2
Substitution2: "'medi' Medial Forms in Arabic lookup 2 subtable" uniFBAD
Substitution2: "'init' Initial Forms in Arabic lookup 3 subtable" uniFBAC
Substitution2: "'fina' Terminal Forms in Arabic lookup 1 subtable" uniFBAB
EndChar

StartChar: figuredash
Encoding: 8210 8210 321
GlifName: figuredash
Width: 1025
Flags: HW
LayerCount: 2
Fore
SplineSet
860 495 m 1
 165 495 l 1
 165 542 l 1
 860 542 l 1
 860 495 l 1
EndSplineSet
EndChar

StartChar: NameMe.65583
Encoding: 65571 -1 332
GlifName: N_ameM_e.65583
Width: 471
VWidth: 2739
Flags: HW
AnchorPoint: "Anchor101" 246 1226 mark 0
AnchorPoint: "Anchor101" 270 1696 basemark 0
AnchorPoint: "Anchor109" 246 1226 mark 0
AnchorPoint: "Anchor110" 246 1226 mark 0
LayerCount: 2
Fore
SplineSet
205 1326 m 2
 336 1326 460 1334 460 1441 c 0
 460 1507 411 1557 342 1557 c 0
 244 1557 171 1454 89 1326 c 1
 205 1326 l 2
-19 1339 m 5
 -12 1371 l 1
 9 1355 30 1343 57 1333 c 1
 164 1513 241 1595 337 1595 c 0
 429 1595 494 1533 494 1445 c 0
 494 1309 374 1290 207 1290 c 2
 182 1290 l 2
 93 1290 16 1298 -19 1339 c 5
EndSplineSet
EndChar

StartChar: uni06CD
Encoding: 1741 1741 344
GlifName: uni06C_D_
Width: 1505
VWidth: 3094
Flags: HW
AnchorPoint: "Anchor107" 809 -709 basechar 0
AnchorPoint: "Anchor110" 690 765 basechar 0
LayerCount: 2
Fore
SplineSet
90 224 m 1
 100.825195312 285.787109375 l 1
 358 370 l 1
 346.915039062 318.365234375 l 1
 90 224 l 1
EndSplineSet
Refer: 44 1609 N 1 0 0 1 170 0 2
Substitution2: "'fina' Terminal Forms in Arabic lookup 1 subtable" uni06CD.fina
EndChar

StartChar: uni06D0.dots
Encoding: 65572 -1 345
GlifName: N_ameM_e.65587
Width: 528
VWidth: 2809
Flags: HW
LayerCount: 2
Fore
SplineSet
256 305 m 5
 322 240 l 1
 256 175 l 1
 192 240 l 1
 256 305 l 5
256 85 m 1
 322 20 l 1
 256 -45 l 1
 192 20 l 1
 256 85 l 1
EndSplineSet
EndChar

StartChar: uni06CD.fina
Encoding: 65573 -1 346
GlifName: uni06C_D_.fina
Width: 1382
VWidth: 2834
Flags: HW
AnchorPoint: "Anchor110" 653 583 basechar 0
AnchorPoint: "Anchor107" 826 -732 basechar 0
LayerCount: 2
Fore
SplineSet
298.915039062 269.365234375 m 5
 95 177 l 5
 105.825195312 228.787109375 l 5
 310 321 l 5
 298.915039062 269.365234375 l 5
EndSplineSet
Refer: 251 65264 N 1 0 0 1 133 0 2
EndChar

StartChar: uni06D2
Encoding: 1746 1746 375
GlifName: uni06D_2
Width: 1757
VWidth: -3
Flags: HW
AnchorPoint: "Anchor107" 889 -192 basechar 0
AnchorPoint: "Anchor110" 579 1090 basechar 0
LayerCount: 2
Fore
SplineSet
811 52 m 0
 1161 52 1438 86 1624 113 c 1
 1626 54 l 1
 1451 32 1164 1 813 1 c 0
 574 1 122 45 122 242 c 4
 122 348 272 435 351 532 c 0
 475 685 493 817 571 817 c 0
 629 817 795 594 835 533 c 1
 796 496 l 1
 727 591 661 693 568 765 c 1
 506 652 461 581 381 484 c 0
 294 380 185 321 185 250 c 0
 185 90 595 52 811 52 c 0
EndSplineSet
Position2: "Single Positioning lookup 2 subtable" dx=0 dy=0 dh=-126 dv=0
Position2: "Single Positioning lookup 1 subtable" dx=0 dy=0 dh=-126 dv=0
Substitution2: "'fina' Terminal Forms in Arabic lookup 1 subtable" uniFBAF
EndChar

StartChar: uni06D4
Encoding: 1748 1748 377
GlifName: uni06D_4
Width: 552
VWidth: 3091
Flags: HW
LayerCount: 2
Fore
SplineSet
135 62 m 5
 417 62 l 5
 417 0 l 5
 135 0 l 5
 135 62 l 5
EndSplineSet
EndChar

StartChar: uniFBA7
Encoding: 64423 64423 378
GlifName: uniF_B_A_7
Width: 927
VWidth: 3091
Flags: HW
AnchorPoint: "Anchor110" 451 875 basechar 0
AnchorPoint: "Anchor107" 427 -219 basechar 0
LayerCount: 2
Fore
SplineSet
470 422 m 0
 287 422 221 140 188 -6 c 1
 135 2 l 1
 163 188 269 498 467 498 c 0
 558 498 594 436 647 314 c 0
 694 207 752 62 886 62 c 2
 946 62 l 1
 946 0 l 1
 886 0 l 2
 738 0 666 141 615 260 c 0
 587 325 553 422 470 422 c 0
EndSplineSet
EndChar

StartChar: uniFBA8
Encoding: 64424 64424 379
GlifName: uniF_B_A_8
Width: 558
VWidth: 3094
Flags: HW
AnchorPoint: "Anchor107" 248 -717 basechar 0
AnchorPoint: "Anchor110" 336 943 basechar 0
LayerCount: 2
Fore
SplineSet
317.118164062 -303.780273438 m 1
 271.661132812 -349.982421875 223.223632812 -417.05078125 223.223632812 -514.671875 c 1
 268.680664062 -505.729492188 297.743164062 -525.849609375 297.743164062 -563.85546875 c 0
 297.743164062 -601.115234375 285.8203125 -618.254882812 248.559570312 -618.254882812 c 0
 194.905273438 -618.254882812 182.237304688 -594.408203125 182.237304688 -541.499023438 c 0
 182.237304688 -417.795898438 247.814453125 -327.626953125 294.017578125 -285.895507812 c 1
 317.118164062 -303.780273438 l 1
EndSplineSet
Refer: 300 -1 N 1 0 0 1 0 0 3
EndChar

StartChar: uniFBA9
Encoding: 64425 64425 380
GlifName: uniF_B_A_9
Width: 1020
VWidth: 2144
Flags: HW
AnchorPoint: "Anchor107" 593 -705 basechar 0
AnchorPoint: "Anchor110" 507 813 basechar 0
LayerCount: 2
Fore
SplineSet
669 -385 m 0
 669 -407 669 -441 673 -481 c 1
 619 -526 l 1
 394 -403 313 -242 313 87 c 1
 237 30 143 0 46 0 c 2
 -18 0 l 1
 -18 62 l 1
 48 62 l 2
 216 62 307 144 392 227 c 1
 433 182 l 1
 381 124 366 131 366 12 c 4
 366 -223 453 -384 619 -465 c 1
 601 -148 740 62 978 62 c 2
 1038 62 l 1
 1038 0 l 1
 978 0 l 2
 761 0 669 -175 669 -385 c 0
EndSplineSet
EndChar

StartChar: uniFBAB
Encoding: 64427 64427 382
GlifName: uniF_B_A_B_
Width: 1114
VWidth: 2834
Flags: HW
AnchorPoint: "Anchor110" 621 1131 basechar 0
AnchorPoint: "Anchor107" 667 -715 basechar 0
LayerCount: 2
Fore
SplineSet
50 62 m 1
 95 62 l 1
 95 0 l 1
 69 0 l 1
 50 62 l 1
EndSplineSet
Refer: 247 65260 N 1 0 0 1 94 0 2
EndChar

StartChar: uni0658
Encoding: 1624 1624 387
GlifName: uni0658
Width: 0
VWidth: 2347
Flags: HW
AnchorPoint: "Anchor107" 284 -176 basechar 0
AnchorPoint: "Anchor110" 325 988 mark 0
AnchorPoint: "Anchor109" 325 988 mark 0
AnchorPoint: "Anchor101" 321 1315 basemark 0
AnchorPoint: "Anchor101" 325 988 mark 0
LayerCount: 2
Fore
SplineSet
534 1267 m 5
 515 1146 447 1047 313 1047 c 0
 179 1047 111 1146 92 1267 c 1
 145 1267 l 1
 161 1175 205 1100 313 1100 c 0
 421 1100 464 1176 480 1267 c 1
 534 1267 l 5
EndSplineSet
EndChar

StartChar: uniFBC0
Encoding: 64448 64448 388
GlifName: uniF_B_C_0
Width: 810
VWidth: 2748
Flags: HW
LayerCount: 2
Fore
SplineSet
366 1490 m 2
 488 1492 633 1511 633 1615 c 0
 633 1678 588 1721 526 1721 c 0
 419 1721 320 1576 260 1488 c 1
 366 1490 l 2
216 1489 m 1
 230 1510 251 1541 267 1564 c 1
 267 1975 l 1
 306 1975 l 1
 306 1624 l 1
 364 1685 430 1766 521 1766 c 0
 611 1766 676 1706 676 1620 c 0
 676 1481 533 1445 367 1445 c 2
 133 1445 l 1
 133 1489 l 1
 216 1489 l 1
EndSplineSet
EndChar

StartChar: uniFBBF
Encoding: 64447 64447 393
GlifName: uniF_B_B_F_
Width: 567
VWidth: 0
Flags: HW
LayerCount: 2
Fore
SplineSet
164 -347 m 0
 164 -414 218 -466 284 -466 c 0
 351 -466 403 -414 403 -347 c 0
 403 -281 351 -227 284 -227 c 0
 217 -227 164 -280 164 -347 c 0
124 -347 m 0
 124 -260 197 -188 284 -188 c 0
 371 -188 443 -260 443 -347 c 0
 443 -434 371 -507 284 -507 c 0
 197 -507 124 -434 124 -347 c 0
EndSplineSet
EndChar

StartChar: uniFBAF.compact
Encoding: 65598 -1 398
GlifName: uniF_B_A_F_.compact
Width: 1229
VWidth: 3091
Flags: HW
AnchorPoint: "Anchor107" 806 -666 basechar 0
AnchorPoint: "Anchor110" 757 481 basechar 0
LayerCount: 2
Fore
SplineSet
811 -440 m 0
 1079 -440 1246 -410 1344 -385 c 1
 1355 -434 l 1
 1223 -464 1057 -492 813 -492 c 0
 574 -492 129 -477 129 -260 c 0
 129 -95 464 62 656 62 c 2
 1248 62 l 1
 1248 0 l 1
 652 0 l 2
 492 0 185 -133 185 -252 c 0
 185 -424 628 -440 811 -440 c 0
EndSplineSet
EndChar

StartChar: uni06F4.locl
Encoding: 65600 -1 402
GlifName: uni06F_4.urdu
Width: 1174
VWidth: 3091
Flags: HW
LayerCount: 2
Fore
SplineSet
212 1122 m 0
 212 1208 284 1285 368 1285 c 0
 613 1285 770 1001 831 820 c 1
 851 954 921 1131 999 1262 c 1
 1043 1238 l 1
 965 1113 911 967 874 774 c 1
 800 774 l 1
 726 960 572 1227 391 1227 c 0
 322 1227 266 1180 266 1100 c 0
 266 1053 277 1020 288 976 c 0
 319 845 350 604 350 194 c 2
 350 0 l 1
 297 0 l 1
 297 197 l 2
 297 583 269 831 238 973 c 0
 225 1032 212 1088 212 1122 c 0
EndSplineSet
EndChar

StartChar: uni06F7.locl
Encoding: 65601 -1 403
GlifName: uni06F_7.urdu
Width: 1038
VWidth: 3091
Flags: HW
LayerCount: 2
Fore
SplineSet
905 62 m 1
 905 0 l 1
 138 0 l 1
 193 464 506 953 799 1245 c 5
 842 1204 l 5
 536 900 277 458 201 62 c 1
 905 62 l 1
EndSplineSet
EndChar

StartChar: uni06E9
Encoding: 1769 1769 408
GlifName: uni06E_9
Width: 1175
VWidth: 0
Flags: HW
LayerCount: 2
Fore
SplineSet
532 62 m 1
 551 76 l 1
 551 696 l 1
 417 830 l 1
 588 1002 l 1
 759 830 l 1
 625 696 l 1
 625 76 l 1
 644 62 l 1
 532 62 l 1
476 830 m 1
 588 718 l 1
 700 830 l 1
 588 943 l 1
 476 830 l 1
189 830 m 1
 390 629 l 1
 390 155 l 1
 185 4 l 1
 185 -86 l 1
 991 -86 l 1
 991 4 l 1
 786 155 l 1
 786 629 l 1
 987 830 l 1
 588 1229 l 1
 189 830 l 1
130 830 m 1
 588 1288 l 1
 1045 830 l 1
 827 612 l 1
 827 176 l 1
 1032 25 l 1
 1032 -127 l 1
 144 -127 l 1
 144 25 l 1
 349 176 l 1
 349 612 l 1
 130 830 l 1
EndSplineSet
EndChar

StartChar: uni06DE
Encoding: 1758 1758 409
GlifName: uni06D_E_
Width: 1996
VWidth: 0
Flags: HW
LayerCount: 2
Fore
SplineSet
417 293 m 1
 417 0 l 1
 709 0 l 1
 417 293 l 1
747 -37 m 1
 380 -37 l 1
 380 330 l 1
 120 590 l 1
 380 849 l 1
 380 1209 l 1
 740 1209 l 1
 995 1465 l 1
 1250 1209 l 1
 1617 1209 l 1
 1617 842 l 1
 1877 583 l 1
 1617 323 l 1
 1617 -37 l 1
 1257 -37 l 1
 1001 -292 l 1
 747 -37 l 1
1294 0 m 1
 1580 0 l 1
 1580 287 l 1
 1294 0 l 1
1580 879 m 1
 1580 1172 l 1
 1288 1172 l 1
 1580 879 l 1
417 885 m 1
 703 1172 l 1
 417 1172 l 1
 417 885 l 1
417 833 m 1
 417 346 l 1
 761 0 l 1
 1241 0 l 1
 1580 340 l 1
 1580 827 l 1
 1235 1172 l 1
 756 1172 l 1
 417 833 l 1
793 1209 m 1
 1199 1209 l 1
 995 1411 l 1
 793 1209 l 1
380 796 m 1
 173 589 l 1
 380 382 l 1
 380 796 l 1
1617 791 m 1
 1617 377 l 1
 1824 584 l 1
 1617 791 l 1
1205 -37 m 1
 797 -37 l 1
 1001 -239 l 1
 1205 -37 l 1
883 583 m 0
 883 519 934 469 998 469 c 0
 1062 469 1113 519 1113 583 c 0
 1113 647 1062 698 998 698 c 0
 934 698 883 647 883 583 c 0
843 583 m 0
 843 668 913 738 998 738 c 0
 1083 738 1154 668 1154 583 c 0
 1154 498 1083 427 998 427 c 0
 913 427 843 498 843 583 c 0
EndSplineSet
EndChar

StartChar: uni06DD
Encoding: 1757 1757 410
GlifName: uni06D_D_
Width: 2472
VWidth: 0
Flags: HW
LayerCount: 2
Fore
SplineSet
303 1380 m 0
 303 1477 382 1557 479 1557 c 0
 518 1557 555 1543 583 1524 c 1
 767 1656 990 1736 1236 1736 c 0
 1481 1736 1704 1657 1888 1526 c 1
 1916 1544 1952 1557 1990 1557 c 0
 2087 1557 2166 1477 2166 1380 c 0
 2166 1342 2153 1307 2135 1279 c 1
 2267 1096 2346 871 2346 626 c 0
 2346 381 2267 158 2135 -25 c 1
 2153 -53 2166 -89 2166 -127 c 0
 2166 -224 2087 -303 1990 -303 c 0
 1952 -303 1916 -290 1888 -272 c 1
 1704 -404 1481 -484 1236 -484 c 0
 990 -484 766 -404 582 -271 c 1
 554 -290 519 -303 479 -303 c 0
 382 -303 303 -224 303 -127 c 0
 303 -88 317 -51 336 -23 c 1
 206 160 126 382 126 626 c 0
 126 870 205 1093 336 1276 c 1
 317 1306 303 1339 303 1380 c 0
1860 -127 m 0
 1860 -198 1919 -256 1990 -256 c 0
 2061 -256 2119 -198 2119 -127 c 0
 2119 -56 2061 3 1990 3 c 0
 1919 3 1860 -56 1860 -127 c 0
350 -127 m 0
 350 -198 408 -256 479 -256 c 0
 550 -256 609 -198 609 -127 c 0
 609 -56 550 3 479 3 c 0
 408 3 350 -56 350 -127 c 0
1860 1380 m 0
 1860 1309 1919 1251 1990 1251 c 0
 2061 1251 2119 1309 2119 1380 c 0
 2119 1451 2061 1510 1990 1510 c 0
 1919 1510 1860 1451 1860 1380 c 0
350 1380 m 0
 350 1309 408 1251 479 1251 c 0
 550 1251 609 1309 609 1380 c 0
 609 1451 550 1510 479 1510 c 0
 408 1510 350 1451 350 1380 c 0
1812 1388 m 1
 657 1388 l 1
 653 1285 583 1204 479 1204 c 0
 450 1204 422 1213 399 1223 c 1
 282 1054 209 850 209 626 c 0
 209 402 282 200 399 31 c 1
 422 41 450 50 479 50 c 0
 581 50 651 -30 657 -131 c 1
 1812 -131 l 1
 1818 -30 1888 50 1990 50 c 0
 2020 50 2049 40 2073 29 c 1
 2191 198 2264 402 2264 626 c 0
 2264 850 2191 1055 2073 1224 c 1
 2049 1214 2020 1204 1990 1204 c 0
 1886 1204 1816 1285 1812 1388 c 1
1851 1452 m 1
 1678 1568 1472 1654 1236 1654 c 0
 1000 1654 795 1568 622 1452 c 1
 1851 1452 l 1
615 -194 m 1
 790 -313 996 -401 1236 -401 c 0
 1476 -401 1683 -313 1858 -194 c 1
 615 -194 l 1
EndSplineSet
EndChar

StartChar: uniFD3E
Encoding: 64830 64830 411
GlifName: uniF_D_3E_
Width: 819
VWidth: 2075
Flags: HW
LayerCount: 2
Fore
SplineSet
368 946 m 1
 426 1219 551 1454 730 1575 c 1
 742 1537 l 1
 579 1409 469 1194 416 946 c 1
 616 946 l 2
 641 946 656 935 656 906 c 2
 656 280 l 2
 656 255 645 240 616 240 c 2
 416 240 l 1
 468 -9 578 -227 742 -355 c 1
 730 -393 l 1
 550 -271 425 -35 367 240 c 1
 149 240 l 2
 130 240 109 251 109 280 c 2
 109 906 l 2
 109 931 120 946 149 946 c 2
 368 946 l 1
383 470 m 0
 315 470 260 525 260 593 c 0
 260 661 315 716 383 716 c 0
 451 716 505 661 505 593 c 0
 505 525 451 470 383 470 c 0
383 679 m 0
 336 679 296 640 296 593 c 0
 296 546 336 507 383 507 c 0
 430 507 469 546 469 593 c 0
 469 640 430 679 383 679 c 0
151 904 m 1
 151 282 l 1
 614 282 l 1
 614 904 l 1
 151 904 l 1
EndSplineSet
EndChar

StartChar: uniFD3F
Encoding: 64831 64831 412
GlifName: uniF_D_3F_
Width: 819
VWidth: 2075
Flags: HW
LayerCount: 2
Fore
SplineSet
451 946 m 1
 670 946 l 2
 699 946 710 931 710 906 c 2
 710 280 l 2
 710 251 689 240 670 240 c 2
 452 240 l 1
 394 -35 269 -271 89 -393 c 1
 77 -355 l 1
 241 -227 351 -9 403 240 c 1
 203 240 l 2
 174 240 163 255 163 280 c 2
 163 906 l 2
 163 935 178 946 203 946 c 2
 403 946 l 1
 350 1194 240 1409 77 1537 c 1
 89 1575 l 1
 268 1454 393 1219 451 946 c 1
436 470 m 0
 368 470 314 525 314 593 c 0
 314 661 368 716 436 716 c 0
 504 716 559 661 559 593 c 0
 559 525 504 470 436 470 c 0
436 679 m 0
 389 679 350 640 350 593 c 0
 350 546 389 507 436 507 c 0
 483 507 523 546 523 593 c 0
 523 640 483 679 436 679 c 0
668 904 m 1
 205 904 l 1
 205 282 l 1
 668 282 l 1
 668 904 l 1
EndSplineSet
EndChar

StartChar: uni0610
Encoding: 1552 1552 413
GlifName: uni0610
Width: 0
VWidth: 2748
Flags: HW
AnchorPoint: "Anchor110" 501 1241 mark 0
AnchorPoint: "Anchor109" 501 1241 mark 0
AnchorPoint: "Anchor101" 541 1784 basemark 0
AnchorPoint: "Anchor101" 501 1241 mark 0
LayerCount: 2
Fore
SplineSet
464 1360 m 2
 605 1360 769 1386 769 1505 c 0
 769 1575 717 1628 644 1628 c 0
 530 1628 413 1471 342 1360 c 1
 464 1360 l 2
172 1217 m 1
 187 1253 194 1295 194 1344 c 0
 194 1402 182 1460 158 1518 c 1
 194 1531 l 1
 216 1462 l 2
 234 1407 253 1381 306 1374 c 1
 422 1560 533 1671 641 1671 c 0
 740 1671 810 1600 810 1510 c 0
 810 1356 647 1318 466 1318 c 2
 440 1318 l 2
 328 1318 286 1335 229 1362 c 1
 228 1297 223 1243 204 1197 c 1
 172 1217 l 1
EndSplineSet
EndChar

StartChar: uni0611
Encoding: 1553 1553 414
GlifName: uni0611
Width: 0
VWidth: 2748
Flags: HW
AnchorPoint: "Anchor110" 504 1265 mark 0
AnchorPoint: "Anchor109" 504 1265 mark 0
AnchorPoint: "Anchor101" 541 1814 basemark 0
AnchorPoint: "Anchor101" 504 1265 mark 0
LayerCount: 2
Fore
SplineSet
235 1317 m 1
 234 1265 225 1232 205 1188 c 1
 172 1208 l 1
 187 1244 194 1286 194 1335 c 0
 194 1394 182 1452 158 1509 c 1
 194 1522 l 1
 216 1451 l 2
 236 1386 241 1366 291 1366 c 9
 447 1366 l 1
 408 1404 356 1439 356 1536 c 0
 356 1646 437 1743 557 1743 c 0
 622 1743 672 1724 715 1687 c 1
 698 1650 l 1
 658 1676 625 1692 575 1692 c 0
 479 1692 400 1622 400 1532 c 0
 400 1506 412 1430 497 1393 c 0
 503 1390 519 1384 534 1388 c 2
 737 1439 l 1
 737 1390 l 1
 573 1340 432 1317 295 1317 c 2
 235 1317 l 1
EndSplineSet
EndChar

StartChar: uni0612
Encoding: 1554 1554 415
GlifName: uni0612
Width: 0
VWidth: 2748
Flags: HW
AnchorPoint: "Anchor110" 525 976 mark 0
AnchorPoint: "Anchor109" 525 976 mark 0
AnchorPoint: "Anchor101" 529 1939 basemark 0
AnchorPoint: "Anchor101" 525 976 mark 0
LayerCount: 2
Fore
SplineSet
516 1034 m 1
 499 1033 483 1033 466 1033 c 0
 265 1033 111 1103 111 1301 c 0
 111 1506 302 1632 586 1685 c 1
 586 1685 536 1703 504 1715 c 24
 423 1743 365 1786 296 1786 c 0
 245 1786 200 1755 169 1719 c 2
 162 1710 l 1
 120 1730 l 1
 128 1741 l 2
 170 1799 223 1835 297 1835 c 0
 362 1835 388 1815 454 1784 c 0
 556 1735 625 1708 687 1700 c 1
 683 1652 l 1
 448 1629 153 1518 153 1310 c 0
 153 1134 293 1079 474 1079 c 0
 485 1079 497 1079 508 1080 c 1
 516 1034 l 1
876 1596 m 1
 901 1530 916 1463 916 1398 c 0
 916 1216 811 1102 650 1059 c 5
 632 1100 l 1
 767 1141 873 1234 873 1388 c 0
 873 1450 858 1514 833 1580 c 1
 876 1596 l 1
EndSplineSet
EndChar

StartChar: uni06DC
Encoding: 1756 1756 416
GlifName: uni06D_C_
Width: 0
VWidth: 2748
Flags: HW
AnchorPoint: "Anchor110" 534 1204 mark 0
AnchorPoint: "Anchor109" 534 1204 mark 0
AnchorPoint: "Anchor101" 535 1717 basemark 0
AnchorPoint: "Anchor101" 534 1204 mark 0
LayerCount: 2
Fore
SplineSet
856 1631 m 1
 868 1587 875 1543 875 1503 c 0
 875 1397 842 1310 736 1310 c 0
 665 1310 644 1349 616 1394 c 1
 580 1349 543 1310 475 1310 c 0
 421 1310 397 1329 365 1349 c 1
 355 1150 291 1048 87 1048 c 0
 -87 1048 -201 1128 -201 1321 c 0
 -201 1384 -187 1449 -162 1515 c 1
 -116 1497 l 1
 -136 1438 -148 1379 -148 1324 c 0
 -148 1174 -66 1101 90 1101 c 0
 247 1101 314 1185 314 1343 c 0
 314 1402 298 1462 274 1519 c 1
 326 1537 l 1
 336 1506 344 1474 357 1446 c 0
 378 1401 409 1367 476 1367 c 0
 550 1367 586 1413 586 1489 c 0
 586 1502 584 1531 582 1564 c 1
 632 1570 l 1
 632 1570 633 1511 639 1474 c 0
 647 1424 675 1367 736 1367 c 0
 803 1367 823 1427 823 1496 c 0
 823 1530 816 1572 804 1617 c 1
 856 1631 l 1
EndSplineSet
EndChar

StartChar: uni220E
Encoding: 8718 8718 419
GlifName: uni220E_
Width: 963
VWidth: 2075
Flags: HW
LayerCount: 2
Fore
SplineSet
253 735 m 5
 710 735 l 5
 710 0 l 5
 253 0 l 5
 253 735 l 5
EndSplineSet
EndChar

StartChar: NameMe.65623
Encoding: 65608 -1 420
GlifName: N_ameM_e.65623
Width: 1855
VWidth: 2989
Flags: HW
LayerCount: 2
Fore
SplineSet
755 553 m 1
 788.470785043 549.755209439 832.684900358 545.823532908 876.667113467 545.823532908 c 0
 963.788513808 545.823532908 1050 561.250242994 1050 628 c 0
 1050 735 788 670 788 814 c 0
 788 937 947 997 1060 1009 c 1
 1063 955 l 1
 983 946 834 897 834 820 c 0
 834 744.610857145 987.272846818 764.49942988 1057.99999873 708.037165636 c 0
 1079.21262256 691.102894433 1093 667.30062391 1093 632 c 0
 1093 524.097309427 986.695306867 496.964746432 874.174908222 496.964746432 c 0
 833.701467554 496.964746432 792.423819316 500.475242952 755 505 c 1
 755 553 l 1
EndSplineSet
EndChar

StartChar: uni06AA
Encoding: 1706 1706 433
GlifName: uni06A_A_
Width: 1949
VWidth: 3091
Flags: HW
AnchorPoint: "Anchor110" 648 1006 basechar 0
AnchorPoint: "Anchor107" 823 -240 basechar 0
LayerCount: 2
Fore
SplineSet
1128 0 m 2
 759 0 l 2
 688 0 411 -9 128 42 c 1
 134 98 l 1
 402 66 613 62 749 62 c 2
 1127 62 l 2
 1368 62 1764 88 1764 277 c 0
 1764 449 1383 481 1141 481 c 2
 665 481 l 2
 523 481 438 482 438 521 c 0
 438 564 481 584 561 641 c 0
 741 770 1114 983 1348 1070 c 1
 1348 1015 l 1
 1070 909 730 701 505 540 c 1
 1146 540 l 2
 1420 540 1821 507 1821 274 c 0
 1821 22 1401 0 1128 0 c 2
EndSplineSet
Position2: "Single Positioning lookup 2 subtable" dx=0 dy=0 dh=-168 dv=0
Position2: "Single Positioning lookup 1 subtable" dx=0 dy=0 dh=-157 dv=0
Substitution2: "'init' Initial Forms in Arabic lookup 3 subtable" uni06AA.init
Substitution2: "'medi' Medial Forms in Arabic lookup 2 subtable" uni06AA.medi
Substitution2: "'fina' Terminal Forms in Arabic lookup 1 subtable" uni06AA.fina
EndChar

StartChar: uni06AA.fina
Encoding: 65609 -1 434
GlifName: uni06A_A_.fina
Width: 2062
VWidth: 3091
Flags: HW
AnchorPoint: "Anchor107" 927 -240 basechar 0
AnchorPoint: "Anchor110" 648 1006 basechar 0
LayerCount: 2
Fore
SplineSet
1128 0 m 2
 759 0 l 2
 650 0 275 16 128 42 c 1
 134 98 l 1
 402 66 613 62 749 62 c 2
 1127 62 l 2
 1368 62 1764 88 1764 277 c 0
 1764 449 1383 481 1141 481 c 2
 665 481 l 2
 523 481 438 482 438 521 c 0
 438 564 481 584 561 641 c 0
 741 770 1114 983 1348 1070 c 1
 1348 1015 l 1
 1070 909 730 701 505 540 c 1
 1146 540 l 2
 1420 540 1821 507 1821 274 c 0
 1821 224 1801 183 1768 149 c 1
 1839 94 1929 62 2022 62 c 2
 2081 62 l 1
 2081 0 l 1
 2022 0 l 2
 1881 0 1802 49 1726 110 c 5
 1587 15 1322 -2.37581479035e-14 1128 0 c 2
EndSplineSet
EndChar

StartChar: uni06AA.medi
Encoding: 65610 -1 435
GlifName: uni06A_A_.medi
Width: 1701
VWidth: 3091
Flags: HW
AnchorPoint: "Anchor110" 327 1017 basechar 0
AnchorPoint: "Anchor107" 813 -248 basechar 0
LayerCount: 2
Fore
SplineSet
1661 0 m 2
 1520 0 1441 50 1365 111 c 1
 1226 16 961 -2.37581479035e-14 767 0 c 2
 -18 0 l 1
 -18 62 l 1
 766 62 l 2
 1007 62 1403 88 1403 277 c 0
 1403 449 1022 481 780 481 c 2
 304 481 l 2
 162 481 77 482 77 521 c 0
 77 564 120 584 200 641 c 0
 380 770 753 983 987 1070 c 1
 987 1015 l 1
 709 909 369 701 144 540 c 1
 785 540 l 2
 1059 540 1460 507 1460 274 c 0
 1460 224 1440 183 1407 149 c 1
 1478 94 1568 62 1661 62 c 2
 1720 62 l 1
 1720 0 l 1
 1661 0 l 2
EndSplineSet
EndChar

StartChar: uni06AA.init
Encoding: 65611 -1 436
GlifName: uni06A_A_.init
Width: 1589
VWidth: 3091
Flags: HW
AnchorPoint: "Anchor107" 813 -248 basechar 0
AnchorPoint: "Anchor110" 327 1017 basechar 0
LayerCount: 2
Fore
SplineSet
780 481 m 2
 304 481 l 2
 162 481 77 482 77 521 c 0
 77 564 120 584 200 641 c 0
 380 770 753 983 987 1070 c 1
 987 1015 l 1
 709 909 369 701 144 540 c 1
 785 540 l 2
 1059 540 1460 507 1460 274 c 0
 1460 22 1040 0 767 0 c 2
 -18 0 l 1
 -18 62 l 1
 766 62 l 2
 1007 62 1403 88 1403 277 c 0
 1403 449 1022 481 780 481 c 2
EndSplineSet
Position2: "Single Positioning lookup 2 subtable" dx=0 dy=0 dh=-168 dv=0
Position2: "Single Positioning lookup 1 subtable" dx=0 dy=0 dh=-157 dv=0
EndChar

StartChar: uni065B
Encoding: 1627 1627 452
GlifName: uni065B_
Width: 0
VWidth: 2347
Flags: HW
AnchorPoint: "Anchor110" 575 1419 mark 0
AnchorPoint: "Anchor109" 575 1419 mark 0
AnchorPoint: "Anchor101" 581 1807 basemark 0
AnchorPoint: "Anchor101" 575 1419 mark 0
LayerCount: 2
Fore
SplineSet
756 1483 m 1
 716 1463 l 1
 581 1738 l 1
 446 1463 l 1
 406 1483 l 1
 543 1761 l 1
 619 1761 l 1
 756 1483 l 1
EndSplineSet
EndChar

StartChar: extender
Encoding: 65622 -1 453
GlifName: N_ameM_e.65635
Width: 307
VWidth: 3091
Flags: HW
AnchorPoint: "Anchor110" 151 789 basechar 0
AnchorPoint: "Anchor107" 155 -311 basechar 0
LayerCount: 2
Fore
SplineSet
-18 62 m 1
 318 62 l 1
 318 0 l 1
 -18 0 l 1
 -18 62 l 1
EndSplineSet
EndChar

StartChar: uni25CC
Encoding: 9676 9676 454
GlifName: uni25C_C_
Width: 1226
VWidth: 2075
Flags: HW
AnchorPoint: "Anchor110" 629 1236 basechar 0
AnchorPoint: "Anchor107" 604 -241 basechar 0
LayerCount: 2
Fore
SplineSet
352 37 m 1x0c
 284 77 226 125 182 186 c 1
 248 228 l 1
 283 178 331 139 385 108 c 1
 352 37 l 1x0c
977 228 m 1
 1044 187 l 1
 995 123 944 77 873 37 c 1
 841 108 l 1
 898 140 936 175 977 228 c 1
873 940 m 1
 942 901 1000 852 1044 791 c 1
 977 749 l 1
 941 799 896 838 841 869 c 1
 873 940 l 1
248 749 m 1
 182 791 l 1
 222 847 286 902 352 940 c 1
 385 869 l 1
 331 838 283 799 248 749 c 1
613 39 m 0x8c
 647 39 683 45 716 54 c 1
 741 -20 l 1
 699 -31 656 -37 613 -37 c 0x8c
 570 -37 527 -31 485 -20 c 1
 511 54 l 1x4c
 544 45 579 39 613 39 c 0x8c
1134 489 m 0
 1134 444 1129 401 1121 360 c 1
 1048 386 l 1
 1055 418 1058 454 1058 489 c 0
 1058 524 1055 559 1048 591 c 1
 1121 617 l 1
 1129 576 1134 534 1134 489 c 0
613 939 m 0x1c
 579 939 544 932 511 923 c 1
 485 997 l 1x2c
 527 1008 570 1015 613 1015 c 0
 656 1015 699 1008 741 997 c 1
 716 923 l 1
 683 932 647 939 613 939 c 0x1c
168 489 m 0
 168 454 172 418 179 386 c 1
 106 360 l 1
 98 401 92 444 92 489 c 0
 92 534 98 576 106 617 c 1
 179 591 l 1
 172 559 168 524 168 489 c 0
EndSplineSet
EndChar

StartChar: plus
Encoding: 43 43 477
GlifName: plus
Width: 1044
Flags: HW
LayerCount: 2
Fore
SplineSet
546 496 m 1
 546 124 l 1
 498 124 l 1
 498 496 l 1
 165 496 l 1
 165 544 l 1
 498 544 l 1
 498 888 l 1
 546 888 l 1
 546 544 l 1
 879 544 l 1
 879 496 l 1
 546 496 l 1
EndSplineSet
EndChar

StartChar: hyphen
Encoding: 45 45 478
GlifName: hyphen
Width: 901
Flags: HW
LayerCount: 2
Fore
SplineSet
736 495 m 5
 165 495 l 5
 165 542 l 5
 736 542 l 5
 736 495 l 5
EndSplineSet
EndChar

StartChar: multiply
Encoding: 215 215 479
GlifName: multiply
Width: 932
Flags: HW
LayerCount: 2
Fore
SplineSet
432 515 m 1
 166 786 l 1
 200 821 l 1
 466 550 l 1
 732 821 l 1
 766 786 l 1
 500 515 l 1
 767 243 l 1
 734 208 l 1
 466 481 l 1
 198 208 l 1
 165 243 l 1
 432 515 l 1
EndSplineSet
EndChar

StartChar: divide
Encoding: 247 247 480
GlifName: divide
Width: 1110
Flags: HW
LayerCount: 2
Fore
SplineSet
500 239 m 4
 500 271 528 299 559 299 c 4
 590 299 618 271 618 239 c 4
 618 207 591 180 559 180 c 4
 525 180 500 204 500 239 c 4
500 801 m 4
 500 833 528 861 559 861 c 4
 590 861 618 833 618 801 c 4
 618 769 591 742 559 742 c 4
 525 742 500 766 500 801 c 4
165 499 m 1
 165 546 l 1
 945 546 l 5
 945 499 l 5
 165 499 l 1
EndSplineSet
EndChar

StartChar: parenleft
Encoding: 40 40 539
GlifName: parenleft
Width: 640
Flags: HW
LayerCount: 2
Fore
SplineSet
217 591 m 4
 217 205 341 -169 579 -355 c 1
 567 -393 l 1
 313 -221 168 178 168 591 c 0
 168 1004 313 1403 567 1575 c 1
 579 1537 l 1
 341 1351 217 977 217 591 c 4
EndSplineSet
Position2: "Single Positioning lookup 7 subtable" dx=0 dy=0 dh=80 dv=0
Position2: "Single Positioning lookup 6 subtable" dx=0 dy=0 dh=160 dv=0
EndChar

StartChar: parenright
Encoding: 41 41 540
GlifName: parenright
Width: 640
Flags: HW
LayerCount: 2
Fore
SplineSet
423 591 m 4
 423 977 299 1351 61 1537 c 5
 73 1575 l 5
 327 1403 472 1004 472 591 c 4
 472 178 327 -221 73 -393 c 5
 61 -355 l 5
 299 -169 423 205 423 591 c 4
EndSplineSet
EndChar

StartChar: bracketleft
Encoding: 91 91 541
GlifName: bracketleft
Width: 439
Flags: HW
LayerCount: 2
Fore
SplineSet
464 1610 m 1
 235 1610 l 1
 235 -258 l 1
 464 -258 l 1
 464 -307 l 1
 186 -307 l 1
 186 1659 l 1
 464 1659 l 1
 464 1610 l 1
EndSplineSet
Position2: "Single Positioning lookup 7 subtable" dx=0 dy=0 dh=100 dv=0
Position2: "Single Positioning lookup 6 subtable" dx=0 dy=0 dh=160 dv=0
EndChar

StartChar: bracketright
Encoding: 93 93 542
GlifName: bracketright
Width: 439
Flags: HW
LayerCount: 2
Fore
SplineSet
-8 1659 m 1
 270 1659 l 1
 270 -307 l 5
 -8 -307 l 5
 -8 -258 l 1
 220 -258 l 1
 220 1610 l 1
 -8 1610 l 1
 -8 1659 l 1
EndSplineSet
EndChar

StartChar: slash
Encoding: 47 47 543
GlifName: slash
Width: 782
Flags: HW
LayerCount: 2
Fore
SplineSet
96 -125 m 5
 42 -125 l 5
 650 1456 l 5
 704 1456 l 5
 96 -125 l 5
EndSplineSet
Position2: "Single Positioning lookup 6 subtable" dx=0 dy=0 dh=180 dv=0
EndChar

StartChar: NameMe.65703
Encoding: 65703 -1 544
GlifName: N_ameM_e.65703
Width: 415
VWidth: 2834
Flags: HW
LayerCount: 2
Fore
SplineSet
233 1193 m 1
 233 0 l 5
 182 0 l 5
 182 1193 l 1
 233 1193 l 1
EndSplineSet
EndChar

StartChar: equal
Encoding: 61 61 545
GlifName: equal
Width: 1064
Flags: HW
LayerCount: 2
Fore
SplineSet
906 315 m 5
 165 315 l 5
 165 362 l 5
 906 362 l 5
 906 315 l 5
906 675 m 1
 165 675 l 1
 165 722 l 1
 906 722 l 1
 906 675 l 1
EndSplineSet
EndChar

StartChar: arabic_dot_r
Encoding: 65704 -1 548
Width: 197
VWidth: 2812
Flags: HW
LayerCount: 2
Fore
SplineSet
39.849609375 102 m 0
 39.849609375 130.021571633 63.4482363172 154.400390625 95.9501953125 154.400390625 c 0
 127.969735883 154.400390625 151.150390625 130.875563678 151.150390625 102 c 0
 151.150390625 73.124436322 127.969735883 49.599609375 95.9501953125 49.599609375 c 0
 63.4482363172 49.599609375 39.849609375 73.9784283674 39.849609375 102 c 0
EndSplineSet
EndChar

StartChar: arabic_2dots_r
Encoding: 65705 -1 549
Width: 517
VWidth: 2812
Flags: HW
LayerCount: 2
Fore
SplineSet
315.3828125 102 m 0
 315.3828125 129.043945312 338.150390625 152.48046875 369.426757812 152.48046875 c 0
 400.234375 152.48046875 422.6171875 129.833984375 422.6171875 102 c 0
 422.6171875 74.166015625 400.234375 51.51953125 369.426757812 51.51953125 c 0
 338.150390625 51.51953125 315.3828125 74.9560546875 315.3828125 102 c 0
92.3818359375 102 m 0
 92.3818359375 129.043945312 115.149414062 152.48046875 146.426757812 152.48046875 c 0
 177.234375 152.48046875 199.6171875 129.833984375 199.6171875 102 c 0
 199.6171875 74.166015625 177.234375 51.51953125 146.426757812 51.51953125 c 0
 115.149414062 51.51953125 92.3818359375 74.9560546875 92.3818359375 102 c 0
EndSplineSet
EndChar

StartChar: arabic_3dots_r
Encoding: 65706 -1 550
Width: 528
VWidth: 2805
Flags: HW
LayerCount: 2
Fore
SplineSet
204.415039062 254 m 4
 204.415039062 279.502929688 225.889648438 301.560546875 255.405273438 301.560546875 c 4
 284.458007812 301.560546875 305.584960938 280.243164062 305.584960938 254 c 4
 305.584960938 227.756835938 284.458007812 206.439453125 255.405273438 206.439453125 c 4
 225.889648438 206.439453125 204.415039062 228.497070312 204.415039062 254 c 4
321.915039062 66 m 0
 321.915039062 91.5029296875 343.390625 113.560546875 372.905273438 113.560546875 c 0
 401.958984375 113.560546875 423.084960938 92.2421875 423.084960938 66 c 0
 423.084960938 39.7578125 401.958984375 18.439453125 372.905273438 18.439453125 c 0
 343.390625 18.439453125 321.915039062 40.4970703125 321.915039062 66 c 0
86.9150390625 66 m 0
 86.9150390625 91.5029296875 108.390625 113.560546875 137.905273438 113.560546875 c 0
 166.958984375 113.560546875 188.084960938 92.2421875 188.084960938 66 c 0
 188.084960938 39.7578125 166.958984375 18.439453125 137.905273438 18.439453125 c 0
 108.390625 18.439453125 86.9150390625 40.4970703125 86.9150390625 66 c 0
EndSplineSet
EndChar

StartChar: arabic_3dots_a_r
Encoding: 65707 -1 551
Width: 528
VWidth: 2820
Flags: HW
LayerCount: 2
Fore
SplineSet
305.584960938 -51 m 4
 305.584960938 -77.2431640625 284.458007812 -98.560546875 255.405273438 -98.560546875 c 4
 225.889648438 -98.560546875 204.415039062 -76.5029296875 204.415039062 -51 c 4
 204.415039062 -25.4970703125 225.889648438 -3.439453125 255.405273438 -3.439453125 c 4
 284.458007812 -3.439453125 305.584960938 -24.7568359375 305.584960938 -51 c 4
423.084960938 137 m 0
 423.084960938 110.756835938 401.958007812 89.439453125 372.905273438 89.439453125 c 0
 343.389648438 89.439453125 321.915039062 111.497070312 321.915039062 137 c 0
 321.915039062 162.502929688 343.389648438 184.560546875 372.905273438 184.560546875 c 0
 401.958007812 184.560546875 423.084960938 163.243164062 423.084960938 137 c 0
188.084960938 137 m 0
 188.084960938 110.756835938 166.958007812 89.439453125 137.905273438 89.439453125 c 0
 108.389648438 89.439453125 86.9150390625 111.497070312 86.9150390625 137 c 0
 86.9150390625 162.502929688 108.389648438 184.560546875 137.905273438 184.560546875 c 0
 166.958007812 184.560546875 188.084960938 163.243164062 188.084960938 137 c 0
EndSplineSet
EndChar

StartChar: uni06D0.dots_r
Encoding: 65708 -1 552
Width: 528
VWidth: 2809
Flags: HW
LayerCount: 2
Fore
SplineSet
255.5 289.1171875 m 0
 283.333984375 289.1171875 305.98046875 266.734375 305.98046875 235.926757812 c 0
 305.98046875 204.650390625 282.543945312 181.8828125 255.5 181.8828125 c 0
 228.455078125 181.8828125 205.01953125 204.650390625 205.01953125 235.926757812 c 0
 205.01953125 266.734375 227.665039062 289.1171875 255.5 289.1171875 c 0
255.5 76.1171875 m 4
 283.333984375 76.1171875 305.98046875 53.734375 305.98046875 22.9267578125 c 0
 305.98046875 -8.3505859375 282.543945312 -31.1171875 255.5 -31.1171875 c 0
 228.455078125 -31.1171875 205.01953125 -8.3505859375 205.01953125 22.9267578125 c 0
 205.01953125 53.734375 227.665039062 76.1171875 255.5 76.1171875 c 4
EndSplineSet
EndChar

StartChar: endash
Encoding: 8211 8211 553
Width: 1345
Flags: HW
LayerCount: 2
Fore
SplineSet
1180 495 m 5
 165 495 l 1
 165 542 l 1
 1180 542 l 5
 1180 495 l 5
EndSplineSet
EndChar

StartChar: emdash
Encoding: 8212 8212 554
Width: 1600
Flags: HW
LayerCount: 2
Fore
SplineSet
1435 495 m 5
 165 495 l 1
 165 542 l 1
 1435 542 l 5
 1435 495 l 5
EndSplineSet
EndChar
